<?xml version="1.0" encoding="UTF-8" standalone="no"?>
<svg
   viewBox="0 0 32 32"
   version="1.1"
   id="svg521"
   sodipodi:docname="file_type_gitleaks.svg"
   inkscape:version="1.1.2 (0a00cf5339, 2022-02-04)"
   xmlns:inkscape="http://www.inkscape.org/namespaces/inkscape"
   xmlns:sodipodi="http://sodipodi.sourceforge.net/DTD/sodipodi-0.dtd"
   xmlns="http://www.w3.org/2000/svg"
   xmlns:svg="http://www.w3.org/2000/svg"
   xmlns:rdf="http://www.w3.org/1999/02/22-rdf-syntax-ns#"
   xmlns:cc="http://creativecommons.org/ns#"
   xmlns:dc="http://purl.org/dc/elements/1.1/">
  <title
     id="title1620">file_type_gitleaks</title>
  <defs
     id="defs525" />
  <sodipodi:namedview
     id="namedview523"
     pagecolor="#ffffff"
     bordercolor="#666666"
     borderopacity="1.0"
     inkscape:pageshadow="2"
     inkscape:pageopacity="0.0"
     inkscape:pagecheckerboard="0"
     showgrid="false"
     inkscape:zoom="26.21875"
     inkscape:cx="3.2991657"
     inkscape:cy="15.98093"
     inkscape:window-width="2560"
     inkscape:window-height="1371"
     inkscape:window-x="0"
     inkscape:window-y="32"
     inkscape:window-maximized="1"
     inkscape:current-layer="svg521" />
  <!-- Git diamond shape -->
  <rect
     x="12.112062"
     y="-10.514952"
     width="21.03071"
     height="21.03071"
     rx="2.103071"
     fill="#f1502f"
     transform="matrix(0.70711939,0.70709417,-0.70711939,0.70709417,0,0)"
     id="rect513"
     style="stroke-width:1.05153;fill:#dd4c35;fill-opacity:1"
     inkscape:label="path513" />
  <!-- Larger exclamation mark in center -->
  <path
     id="circle517"
     style="fill:#ffffff;stroke-width:0.894025"
     inkscape:label="path517"
     d="m 17.868155,22.174088 a 1.8739155,2.0644066 0.84888037 0 1 -2.015532,1.901991 1.8739155,2.0644066 0.84888037 0 1 -1.720778,-2.214869 1.8739155,2.0644066 0.84888037 0 1 2.015532,-1.901992 1.8739155,2.0644066 0.84888037 0 1 1.720778,2.21487 z M 14.748674,7.6384501 H 17.1984 c 0.339286,1e-7 0.61243,0.2980186 0.61243,0.668203 l 1e-6,9.1118109 c 0,0.370183 -0.273145,0.668203 -0.612432,0.668203 l -2.449725,-10e-7 c -0.339287,0 -0.612431,-0.298019 -0.612431,-0.668202 V 8.3066532 c 0,-0.3701845 0.273143,-0.6682031 0.612431,-0.6682031 z"
     sodipodi:insensitive="true" />
  <metadata
     id="metadata1618">
    <rdf:RDF>
      <cc:Work
         rdf:about="">
        <dc:title>file_type_gitleaks</dc:title>
      </cc:Work>
    </rdf:RDF>
  </metadata>
</svg>
