<?xml version="1.0" encoding="UTF-8" standalone="no"?>
<svg
   viewBox="0 0 32 32"
   version="1.1"
   id="svg8"
   sodipodi:docname="folder_type_aptly.svg"
   inkscape:version="1.1.2 (0a00cf5339, 2022-02-04)"
   xmlns:inkscape="http://www.inkscape.org/namespaces/inkscape"
   xmlns:sodipodi="http://sodipodi.sourceforge.net/DTD/sodipodi-0.dtd"
   xmlns="http://www.w3.org/2000/svg"
   xmlns:svg="http://www.w3.org/2000/svg"
   xmlns:rdf="http://www.w3.org/1999/02/22-rdf-syntax-ns#"
   xmlns:cc="http://creativecommons.org/ns#"
   xmlns:dc="http://purl.org/dc/elements/1.1/">
  <defs
     id="defs12" />
  <sodipodi:namedview
     id="namedview10"
     pagecolor="#505050"
     bordercolor="#eeeeee"
     borderopacity="1"
     inkscape:pageshadow="0"
     inkscape:pageopacity="0"
     inkscape:pagecheckerboard="0"
     showgrid="false"
     inkscape:zoom="27.28125"
     inkscape:cx="4.0137457"
     inkscape:cy="14.588774"
     inkscape:window-width="2560"
     inkscape:window-height="1371"
     inkscape:window-x="0"
     inkscape:window-y="32"
     inkscape:window-maximized="1"
     inkscape:current-layer="svg8" />
  <title
     id="title2">folder_type_aptly</title>
  <path
     d="M27.5,5.5H18.2L16.1,9.7H4.4V26.5H29.6V5.5Zm0,4.2H19.3l1.1-2.1h7.1Z"
     style="fill:#56b0b7"
     id="path4" />
  <metadata
     id="metadata836">
    <rdf:RDF>
      <cc:Work
         rdf:about="">
        <dc:title>folder_type_aptly</dc:title>
      </cc:Work>
    </rdf:RDF>
  </metadata>
  <g
     id="g1952">
    <circle
       fill="none"
       stroke="#333333"
       stroke-width="0.520874"
       stroke-miterlimit="10"
       cx="20.075844"
       cy="14.004972"
       r="1.2500985"
       id="circle984"
       style="stroke:#ffffff;stroke-opacity:1" />
    <circle
       fill="none"
       stroke="#333333"
       stroke-width="0.520874"
       stroke-miterlimit="10"
       cx="27.797806"
       cy="27.131004"
       r="1.2500985"
       id="circle986"
       style="stroke:#ffffff;stroke-opacity:1" />
    <path
       fill="#333333"
       d="m 17.705866,16.856758 -0.260437,-0.651093 -5.000394,8.789754 c 0,0 3.15129,1.080815 6.250492,-4.232103 l -0.195328,-0.703181 c 0,0 -2.422065,4.661825 -5.351983,4.609738 z"
       id="path988"
       style="fill:#ffffff;stroke-width:0.130219" />
    <path
       fill="#333333"
       d="m 14.945232,22.625441 1.718885,-2.760634 c 0,-0.01302 0.286481,2.096519 -1.718885,2.760634 z"
       id="path990"
       style="fill:#ffffff;stroke-width:0.130219" />
    <path
       fill="none"
       stroke="#333333"
       stroke-width="0.520874"
       stroke-miterlimit="10"
       d="m 17.679822,15.242048 c 0,0 -1.458448,-2.265804 0.924552,-3.698208 2.383,-1.432404 3.594033,0.976639 3.594033,0.976639 l 7.982399,13.295317 c 0,0 1.393339,2.252782 -0.989661,3.594033 -2.369979,1.32823 -3.607055,-1.002683 -3.607055,-1.002683 z"
       id="path992"
       style="stroke:#ffffff;stroke-opacity:1" />
  </g>
</svg>
