<?xml version="1.0" encoding="UTF-8" standalone="no"?>
<svg
   viewBox="0 0 32 32"
   version="1.1"
   id="svg12356"
   sodipodi:docname="folder_type_ansible.svg"
   inkscape:version="1.1.2 (0a00cf5339, 2022-02-04)"
   xmlns:inkscape="http://www.inkscape.org/namespaces/inkscape"
   xmlns:sodipodi="http://sodipodi.sourceforge.net/DTD/sodipodi-0.dtd"
   xmlns="http://www.w3.org/2000/svg"
   xmlns:svg="http://www.w3.org/2000/svg"
   xmlns:rdf="http://www.w3.org/1999/02/22-rdf-syntax-ns#"
   xmlns:cc="http://creativecommons.org/ns#"
   xmlns:dc="http://purl.org/dc/elements/1.1/">
  <defs
     id="defs12360">
    <linearGradient
       id="_Linear1"
       x1="0"
       y1="0"
       x2="1"
       y2="0"
       gradientUnits="userSpaceOnUse"
       gradientTransform="matrix(1,1,-1,1,153,153)">
      <stop
         offset="0"
         style="stop-color:rgb(215,30,0);stop-opacity:1"
         id="stop14402" />
      <stop
         offset="1"
         style="stop-color:rgb(194,25,1);stop-opacity:1"
         id="stop14404" />
    </linearGradient>
  </defs>
  <sodipodi:namedview
     id="namedview12358"
     pagecolor="#505050"
     bordercolor="#eeeeee"
     borderopacity="1"
     inkscape:pageshadow="0"
     inkscape:pageopacity="0"
     inkscape:pagecheckerboard="0"
     showgrid="false"
     inkscape:zoom="23.7505"
     inkscape:cx="20.715353"
     inkscape:cy="20.673249"
     inkscape:window-width="2560"
     inkscape:window-height="1403"
     inkscape:window-x="2560"
     inkscape:window-y="0"
     inkscape:window-maximized="1"
     inkscape:current-layer="svg12356" />
  <title
     id="title12352">default_folder</title>
  <path
     d="M27.5,5.5H18.2L16.1,9.7H4.4V26.5H29.6V5.5Zm0,4.2H19.3l1.1-2.1h7.1Z"
     style="fill:#dd5541;fill-opacity:1"
     id="path12354" />
  <metadata
     id="metadata12419">
    <rdf:RDF>
      <cc:Work
         rdf:about="">
        <dc:title>default_folder</dc:title>
      </cc:Work>
    </rdf:RDF>
  </metadata>
  <metadata
     id="metadata13102">
    <rdf:RDF>
      <cc:Work
         rdf:about="">
        <dc:title>default_folder</dc:title>
      </cc:Work>
    </rdf:RDF>
  </metadata>
  <metadata
     id="metadata13104">
    <rdf:RDF>
      <cc:Work
         rdf:about="">
        <dc:title>default_folder</dc:title>
      </cc:Work>
    </rdf:RDF>
  </metadata>
  <metadata
     id="metadata13106">
    <rdf:RDF>
      <cc:Work
         rdf:about="">
        <dc:title>default_folder</dc:title>
      </cc:Work>
    </rdf:RDF>
  </metadata>
  <metadata
     id="metadata13108">
    <rdf:RDF>
      <cc:Work
         rdf:about="">
        <dc:title>default_folder</dc:title>
      </cc:Work>
    </rdf:RDF>
  </metadata>
  <metadata
     id="metadata13110">
    <rdf:RDF>
      <cc:Work
         rdf:about="">
        <dc:title>default_folder</dc:title>
      </cc:Work>
    </rdf:RDF>
  </metadata>
  <metadata
     id="metadata13112">
    <rdf:RDF>
      <cc:Work
         rdf:about="">
        <dc:title>default_folder</dc:title>
      </cc:Work>
    </rdf:RDF>
  </metadata>
  <g
     style="clip-rule:evenodd;fill-rule:evenodd;stroke-linejoin:round;stroke-miterlimit:2"
     id="g14581"
     transform="matrix(0.07091824,0,0,0.07091824,9.8622211,9.862222)">
    <g
       transform="matrix(1.3864,0,0,1.3864,-62.1186,-62.0077)"
       id="g14565">
      <path
         d="m 259.793,152.92 v 0 C 259.793,211.505 211.585,259.713 153,259.713 94.415,259.713 46.207,211.505 46.207,152.92 46.207,94.335 94.415,46.127 153,46.127 c 0.002,0 0.004,0 0.006,0 58.581,0 106.787,48.206 106.787,106.787 0,0.002 0,0.004 0,0.006"
         style="fill:url(#_Linear1);fill-rule:nonzero"
         id="path14561" />
      <path
         d="m 154.799,112.893 27.639,68.209 -41.746,-32.881 z m 49.096,83.922 -42.51,-102.301 c -1,-2.752 -3.658,-4.574 -6.586,-4.513 -2.973,-0.068 -5.686,1.742 -6.765,4.513 l -46.657,112.212 h 15.961 l 18.468,-46.268 55.117,44.53 c 2.219,1.794 3.816,2.605 5.897,2.605 0.06,0.001 0.119,0.002 0.179,0.002 4.182,0 7.624,-3.442 7.624,-7.625 0,-0.002 0,-0.004 0,-0.006 -0.072,-1.082 -0.318,-2.145 -0.728,-3.149"
         style="fill:#ffffff;fill-rule:nonzero"
         id="path14563" />
    </g>
  </g>
</svg>
