<?xml version="1.0" encoding="UTF-8" standalone="no"?>
<svg
   viewBox="0 0 32 32"
   version="1.1"
   id="svg1386"
   sodipodi:docname="folder_type_jenkins.svg"
   inkscape:version="1.1.2 (0a00cf5339, 2022-02-04)"
   xmlns:inkscape="http://www.inkscape.org/namespaces/inkscape"
   xmlns:sodipodi="http://sodipodi.sourceforge.net/DTD/sodipodi-0.dtd"
   xmlns="http://www.w3.org/2000/svg"
   xmlns:svg="http://www.w3.org/2000/svg">
  <defs
     id="defs1390" />
  <sodipodi:namedview
     id="namedview1388"
     pagecolor="#ffffff"
     bordercolor="#666666"
     borderopacity="1.0"
     inkscape:pageshadow="2"
     inkscape:pageopacity="0.0"
     inkscape:pagecheckerboard="0"
     showgrid="false"
     inkscape:zoom="26.0625"
     inkscape:cx="9.1702638"
     inkscape:cy="16"
     inkscape:window-width="2560"
     inkscape:window-height="1371"
     inkscape:window-x="0"
     inkscape:window-y="32"
     inkscape:window-maximized="1"
     inkscape:current-layer="svg1386" />
  <title
     id="title1276">file_type_jenkins</title>
  <path
     d="M 27.5,5.5 H 18.2 L 16.1,9.72 H 4.4 V 26.6 H 29.6 V 5.5 Z m 0,4.22 h -8.2 l 1.1,-2.11 h 7.1 z"
     style="fill:#8000a3;stroke-width:1.00238;fill-opacity:1"
     id="path1474" />
  <path
     d="m 23.404021,27.350769 c -0.05567,0 -0.111349,0 -0.163748,-0.0075 0.05323,0.0045 0.108072,0.0075 0.163748,0.0075 z"
     style="fill:none;stroke-width:0.785326"
     id="path1278" />
  <path
     d="m 22.917689,27.285987 a 1.5801764,1.4538133 0 0 0 0.320947,0.05725 1.5801764,1.4538133 0 0 1 -0.320947,-0.05725 z"
     style="fill:none;stroke-width:0.785326"
     id="path1280" />
  <path
     d="m 23.877256,29.111917 c -0.01719,-0.09115 -0.03521,-0.166475 -0.0524,-0.233516 v 0 c 0.01719,0.06704 0.03521,0.142369 0.0524,0.233516 z"
     style="fill:none;stroke-width:0.785326"
     id="path1282" />
  <path
     d="m 13.516046,19.09567 a 0.68119521,0.62672161 0 0 1 0.134282,-0.08588 0.47569041,0.43765055 0 0 0 -0.134282,0.08588 z"
     style="fill:#f0d6b7;stroke-width:0.785326"
     id="path1284" />
  <path
     d="m 15.952631,22.138131 c 0.04912,0.317128 0.196498,3.136622 2.264646,4.707946 a 12.66188,11.649339 0 0 0 1.268235,0.12203 c 0.229248,-0.451963 1.074193,-0.417313 1.625208,-0.301309 A 5.4430119,5.0077466 0 0 1 19.329131,25.327482 3.6565118,3.364109 0 0 1 18.12394,23.326793 c 1.103668,1.408618 2.015748,2.63645 4.02249,3.258652 1.518772,0.468535 3.292172,-0.214683 4.458882,-0.968707 a 5.1237015,4.7139709 0 0 0 1.117585,-1.265496 11.660556,10.728088 0 0 0 1.756206,-6.493951 7.8329262,7.2065451 0 0 0 -0.409371,-2.595771 c -0.370891,-0.683971 -1.624388,-1.295627 -2.357983,-0.677945 a 0.87605636,0.80600013 0 0 1 -0.01317,-0.185304 c -0.117087,0.100938 -0.188313,0.17476 -0.188313,0.17476 a 0.98986179,0.91070482 0 0 1 -0.09989,-0.366844 1.2698723,1.1683236 0 0 1 1.228117,-1.129908 7.1017876,6.533874 0 0 0 -1.210924,-1.177362 8.5886272,7.9018143 0 0 0 -4.950947,-0.167226 6.5990786,6.0713655 0 0 0 -4.891995,4.067663 11.532013,10.609825 0 0 0 -0.317674,1.704653 c -0.02538,0.665893 0.340598,1.246664 0.368436,1.97131 -0.195681,0.296791 -0.793365,0.333701 -1.206829,0.313362 -0.0303,-0.140862 -0.06714,-0.28549 -0.111351,-0.426352 a 4.2230829,3.8853725 0 0 0 -1.03571,-0.376635 1.4074213,1.2948732 0 0 1 0.826112,1.535166 c -0.305392,-0.160446 -0.37826,-0.86626 -0.736869,-0.886599 -0.512535,-0.02863 -0.419198,0.915978 -0.416742,1.468878 a 1.875743,1.7257442 0 0 1 -0.15556,-1.666988 c -0.232523,-0.104702 -0.363524,0.04594 -0.491247,0.163459 -0.181761,0.780389 -0.447853,1.410877 0.05076,2.199551 a 1.4197025,1.3061722 0 0 0 1.157704,0.451963 c 0.464229,-0.04219 0.578034,-0.47004 1.084018,-0.465522 a 0.42001581,0.38642811 0 0 1 0.352879,0.352531 z m 5.280081,1.466619 -0.245624,-0.04594 c 0,0 -0.257085,-0.828597 -0.133461,-0.983771 0.0655,-0.08059 0.425747,-0.201877 0.930093,0.02109 -0.0033,7.54e-4 -0.600959,0.09266 -0.551014,1.008629 z m 4.671754,1.010138 a 4.3147822,3.9697389 0 0 1 -2.805017,-0.01056 3.8374543,3.530582 0 0 1 -1.05045,-1.074917 c -0.126904,-0.150655 -0.758976,-0.533316 -0.0098,-0.53407 v 0 c 0.587041,1.355888 2.603606,1.199208 4.304138,1.162298 a 0.90962487,0.83688425 0 0 1 -0.438845,0.457988 z m 0.245622,-1.205234 a 3.2880769,3.0251369 0 0 1 0,-0.800728 6.9904384,6.4314292 0 0 0 2.423485,-0.892627 v 0 a 2.8041992,2.5799536 0 0 1 -2.424302,1.691848 z m 2.256462,-6.081158 c -0.149837,0.04594 -1.12168,0.573992 -1.046357,-0.0919 a 1.1036673,1.0154095 0 0 1 0.840032,-0.811274 2.4865263,2.2876845 0 0 1 0,-0.301308 v 0 h 0.06468 a 14.038188,12.915587 0 0 0 0.959568,1.724992 c -0.259541,0.555914 -1.964985,1.047046 -1.937149,0.04971 0.368437,-0.150653 1.004599,-0.03013 1.33128,-0.219201 -0.07696,-0.193591 -0.16375,-0.376636 -0.245624,-0.569474 z m -4.246828,3.578038 a 0.58867711,0.54160196 0 0 1 0.03766,0.07533 c 0.0745,-0.381909 0.212056,-0.828599 0.448672,-0.763064 a 0.56002107,0.51523747 0 0 1 0.409373,0.480587 5.6558852,5.2035971 0 0 0 -0.776169,0.555913 c 0.05323,0.225982 0.117889,0.451963 0.428202,0.503184 0.905532,0.14237 1.959255,-0.509963 2.610976,-0.73745 0.40364,-0.626722 -0.03521,-0.857223 -0.39873,-1.260224 -0.745057,-0.828598 -1.743924,-1.850032 -1.707899,-3.088411 0.301298,-0.201123 0.327497,0.306582 0.370072,0.399233 a 12.286076,11.303587 0 0 0 2.082067,2.625904 c 0.175211,0.176266 0.464227,0.345752 0.496158,0.462509 0.09252,0.339724 -0.24071,0.746492 -0.202229,0.971719 v 0 a 5.3930684,4.9617971 0 0 1 -3.656512,1.05458 1.0823799,0.99582447 0 0 1 -0.143281,-1.282067 z m 1.603102,1.748341 a 4.0388653,3.7158865 0 0 1 0.06222,0.799222 C 24.3423,23.521887 22.58937,23.184425 22.200465,22.227018 a 8.4207846,7.7473937 0 0 0 3.561537,0.425598 z m -3.484576,-6.514288 a 5.6935476,5.2382476 0 0 0 0.799912,1.377733 c 0.186674,0.167225 0.54856,0.370609 0.369255,0.835377 a 1.1511543,1.0590992 0 0 1 -0.525634,0.402247 c -0.646808,0.175512 -2.154116,0.03616 -1.644038,-0.705815 0.53464,0.0226 1.254315,0.319387 1.653864,-0.03767 -0.07777,-0.114496 -0.171118,-0.256866 -0.263637,-0.415054 -0.409371,0.238034 -1.534326,0.24858 -1.534326,-0.360816 0,-0.641787 1.096298,-0.778882 1.096298,-0.778882 l 0.0082,0.01808 a 0.90880613,0.83613097 0 0 1 0.0393,-0.337466 z m -2.639632,-2.205578 c 0.978399,-0.613915 1.473741,-0.263645 1.719362,0.141615 a 0.46504674,0.42785802 0 0 1 0.224338,0.623708 c -1.357478,-0.290762 -2.032124,0.522771 -2.443953,1.366435 -0.105611,0.176265 -0.111349,0.05121 -0.171935,-0.102445 a 0.32094773,0.29528229 0 0 1 -0.04995,-0.102443 0.45112808,0.41505241 0 0 0 -0.07531,-0.09115 c -0.196499,-0.186058 -0.298843,-1.147985 0.797457,-1.835721 z"
     style="fill:#f0d6b7;stroke-width:0.785326"
     id="path1286" />
  <path
     d="m 12.572034,30.444453 h 7.166469 c -0.03275,-0.101692 -0.06468,-0.201877 -0.09661,-0.296789 A 9.9592052,9.1627903 0 0 1 19.252174,28.680292 17.25831,15.878202 0 0 1 16.72471,27.433628 1.9265053,1.7724471 0 0 1 16.528212,27.240037 l -4.311506,1.772447 c 0,0 0.154738,0.567967 0.355335,1.431969 z"
     style="fill:#335061;stroke-width:0.785326"
     id="path1288" />
  <path
     d="m 15.15108,13.661572 a 1.7398316,1.6007012 0 0 1 0.382352,-0.06629 3.1251468,2.875236 0 0 0 0.611602,0.02185 c 0.404461,-0.09266 0.746696,-0.927276 1.052088,-1.238377 a 9.2788287,8.5368219 0 0 1 0.770437,-0.584539 6.0144954,5.5335299 0 0 0 -2.816479,1.86736 z"
     style="fill:#6d6b6d;stroke-width:0.785326"
     id="path1290" />
  <path
     d="m 13.303992,17.869344 a 1.7578439,1.6172732 0 0 1 2.574951,1.315966 c 0.568208,-0.01355 0.212054,-0.652333 0.109711,-1.064374 -0.302117,-1.21126 0.398728,-2.515925 0.157197,-3.661651 -3.165266,0.435391 -2.986779,2.671853 -2.841863,3.410059 z"
     style="fill:#6d6b6d;stroke-width:0.785326"
     id="path1292" />
  <path
     d="m 18.275407,11.289522 c -1.490114,0.388687 -3.399425,1.384511 -4.011846,2.61611 a 6.0497013,5.5659205 0 0 0 0.887519,-0.24406 6.0144954,5.5335299 0 0 1 2.816479,-1.86736 1.3484718,1.2406376 0 0 0 0.130184,-0.125043 c 0.157197,-0.07005 0.389722,-0.06478 0.398728,-0.282476 -0.06796,-0.06704 -0.140003,-0.11827 -0.22106,-0.09717 z"
     style="fill:#dcd9d8;stroke-width:0.785326"
     id="path1294" />
  <path
     d="m 13.568446,15.156815 c -0.654995,0.666645 -0.520721,1.914814 -0.440485,2.802922 a 1.9003053,1.7483423 0 0 1 0.178488,-0.09039 c -0.147379,-0.737453 -0.322586,-2.974668 2.84186,-3.410059 a 2.3006713,2.1166919 0 0 0 -0.116266,-0.371362 3.6098434,3.3211725 0 0 0 -2.463603,1.068892 z"
     style="fill:#dcd9d8;stroke-width:0.785326"
     id="path1296" />
  <path
     d="M 15.952631,22.138131 A 0.42001581,0.38642811 0 0 0 15.608758,21.7856 c 0.274279,0.503185 -0.422472,0.661373 -0.491247,1.020683 a 3.1415217,2.8903014 0 0 0 0.102336,0.626722 9.293566,8.5503808 0 0 0 1.183085,2.534757 2.6044255,2.3961555 0 0 0 1.817613,0.878315 c -2.071422,-1.57057 -2.218797,-4.390818 -2.267922,-4.707946 z"
     style="fill:#f7e4cd;stroke-width:0.785326"
     id="path1298" />
  <path
     d="M 25.051335,20.695617 A 0.56002107,0.51523747 0 0 0 24.641963,20.21503 c -0.236617,-0.06176 -0.374166,0.381155 -0.448672,0.763064 a 1.9453363,1.7897721 0 0 1 0.08187,0.273438 5.6558852,5.2035971 0 0 1 0.77617,-0.555915 z"
     style="fill:#f7e4cd;stroke-width:0.785326"
     id="path1300" />
  <path
     d="m 27.359375,17.23509 c -0.07533,0.665892 0.900618,0.137849 1.046355,0.0919 l -0.03521,-0.215436 a 2.6486376,2.4368323 0 0 1 -0.171117,-0.687739 1.1036673,1.0154095 0 0 0 -0.84003,0.811273 z"
     style="fill:#f7e4cd;stroke-width:0.785326"
     id="path1302" />
  <path
     d="m 21.132825,17.23509 c 0,0.609396 1.122499,0.598851 1.534327,0.360817 a 3.3183706,3.053008 0 0 1 -0.429841,-1.121621 l -0.0082,-0.01808 c 0,0 -1.096297,0.137096 -1.096297,0.778884 z"
     style="fill:#f7e4cd;stroke-width:0.785326"
     id="path1304" />
  <path
     d="m 13.316273,19.601114 a 0.6549954,0.60261692 0 0 1 -0.102335,0.0821 0.99968674,0.91974408 0 0 1 0.302935,-0.588304 0.47569041,0.43765055 0 0 1 0.133462,-0.08512 0.80155061,0.73745246 0 0 1 0.640257,-0.02411 4.2230829,3.8853725 0 0 1 1.035712,0.376636 c -0.158016,-0.500165 -0.42902,-0.951374 -0.989042,-1.00787 a 1.6653258,1.5321535 0 0 0 -1.801238,1.478672 3.1587153,2.9061201 0 0 0 0.831025,1.963778 c -0.499447,-0.784901 -0.232536,-1.415389 -0.05079,-2.195779 z"
     style="fill:#f7e4cd;stroke-width:0.785326"
     id="path1306" />
  <path
     d="m 21.48161,11.735457 a 8.5886272,7.9018143 0 0 1 4.950946,0.167226 3.3789576,3.1087501 0 0 0 -0.401185,-0.247826 c -1.546606,-0.802986 -4.164132,-1.406357 -5.813084,-0.652334 -1.327184,0.608644 -3.121871,1.616522 -3.733472,2.893316 a 3.3642201,3.0951912 0 0 1 0.100716,1.907283 6.5990786,6.0713655 0 0 1 4.896091,-4.067665 z"
     style="fill:#f7e4cd;stroke-width:0.785326"
     id="path1308" />
  <path
     d="m 26.412906,14.209953 a 0.98986179,0.91070482 0 0 0 0.09989,0.366842 c 0,0 0.07123,-0.07533 0.188311,-0.174758 0.02538,-0.552901 0.708215,-0.867768 1.49994,-0.652332 -0.181762,-0.215436 -0.365978,-0.443678 -0.557565,-0.66966 a 1.2698723,1.1683236 0 0 0 -1.230573,1.129908 z"
     style="fill:#f7e4cd;stroke-width:0.785326"
     id="path1310" />
  <path
     d="m 18.965609,15.965075 c 0.06058,0.150654 0.06714,0.27871 0.171937,0.102444 a 0.284923,0.26213836 0 0 1 -0.171937,-0.102444 z"
     style="fill:#f7e4cd;stroke-width:0.785326"
     id="path1312" />
  <path
     d="m 18.916483,15.86263 a 1.2166539,1.119361 0 0 1 0.09333,-0.57098 2.3055838,2.1212115 0 0 1 2.022299,-1.32199 0.94073714,0.86550855 0 0 1 0.327496,0.107723 c -0.245621,-0.40526 -0.736868,-0.753271 -1.719362,-0.141615 -1.09548,0.687736 -0.996412,1.649664 -0.796637,1.833463 a 0.45112808,0.41505241 0 0 1 0.07286,0.0934 z"
     style="fill:#f7e4cd;stroke-width:0.785326"
     id="path1314" />
  <path
     d="m 12.216701,29.012484 4.311506,-1.772447 c -0.316034,-0.337464 -0.883425,-0.979252 -0.982492,-0.946861 a 19.714544,18.138016 0 0 0 -4.593156,2.625149 16.568108,15.243196 0 0 1 0.663182,1.526128 h 0.956293 c -0.200592,-0.864002 -0.355333,-1.431969 -0.355333,-1.431969 z"
     style="fill:#49728b;stroke-width:0.785326"
     id="path1316" />
  <path
     d="m 29.53396,30.464792 a 17.059355,15.695157 0 0 0 0.448672,-1.550233 c 0.02947,-0.136342 0.0868,-0.357803 0.127724,-0.569473 L 27.74746,26.730073 a 4.1944267,3.8590081 0 0 1 0.106438,2.937758 c 0.08187,0.280217 0.371709,0.387934 0.491245,0.640279 -0.02784,0.04521 -0.05569,0.08964 -0.08187,0.134837 h 1.208467 a 0.1219929,0.11223741 0 0 1 0.06222,0.02185 z"
     style="fill:#335061;stroke-width:0.785326"
     id="path1318" />
  <path
     d="m 27.438793,29.536008 a 0.88506254,0.81428611 0 0 0 0.140823,-0.286996 0.88506254,0.81428611 0 0 1 -0.140823,0.286996 z"
     style="fill:#335061;stroke-width:0.785326"
     id="path1320" />
  <path
     d="m 26.764149,26.426505 a 0.77616955,0.71410105 0 0 1 0.420833,-0.07985 L 26.990121,26.21333 a 1.1929103,1.0975161 0 0 0 -0.225972,0.213177 z"
     style="fill:#335061;stroke-width:0.785326"
     id="path1322" />
  <path
     d="m 30.15293,27.882577 c -0.06058,-0.404505 -0.654995,-0.704308 -0.959568,-0.953641 -0.560021,-0.461754 -0.910444,-0.86852 -1.492571,-1.300146 a 3.5951059,3.3076137 0 0 1 -0.711489,0.584539 l 0.194861,0.133329 a 0.76306964,0.70204872 0 0 1 0.561659,0.384168 l 2.361259,1.61426 a 1.9150427,1.7619012 0 0 0 0.04585,-0.462509 z"
     style="fill:#49728b;stroke-width:0.785326"
     id="path1324" />
  <path
     d="m 24.271072,30.384191 a 0.35860998,0.32993276 0 0 0 0.0074,0.05725 h 0.39218 a 0.27264184,0.2508393 0 0 1 0.545281,0 h 0.63371 v -0.0226 c -0.224336,-0.108476 -0.714765,-0.342738 -0.982492,-0.44669 -0.347149,-0.134081 -0.596048,0.41204 -0.596048,0.41204 z"
     style="fill:#ffffff;stroke-width:0.785326"
     id="path1326" />
  <path
     d="m 24.271072,30.384191 c 0,0 0.245623,-0.549889 0.597684,-0.412793 0.263634,0.10395 0.754061,0.33822 0.982492,0.44669 0.0082,-0.165719 0.01638,-0.331439 0.02784,-0.497159 -0.505984,0.02938 -0.786813,-0.421078 -1.14133,-0.455728 -0.309484,-0.03089 -0.573121,0.327673 -0.974307,0.172499 -0.09252,0.09341 -0.176028,0.195097 -0.270184,0.286995 a 5.1687325,4.7554008 0 0 1 0.400365,0.515991 h 0.389723 a 0.35860998,0.32993276 0 0 1 -0.01221,-0.0565 z"
     style="fill:#dcd9d8;stroke-width:0.785326"
     id="path1328" />
  <path
     d="m 19.308664,27.347754 a 5.5166988,5.075541 0 0 1 -1.857732,-0.301307 0.23088588,0.21242247 0 0 0 0.01398,0.317125 6.2691248,5.7677972 0 0 0 1.752112,0.435393 1.431165,1.316718 0 0 0 0.09169,-0.451211 z"
     style="fill:#ffffff;stroke-width:0.785326"
     id="path1330" />
  <path
     d="m 19.182576,28.025699 a 1.0095117,0.92878333 0 0 1 0.03357,-0.225981 6.2691248,5.7677972 0 0 1 -1.752113,-0.435391 3.4690195,3.1916099 0 0 0 1.718542,0.661372 z"
     style="fill:#dcd9d8;stroke-width:0.785326"
     id="path1332" />
  <path
     d="m 27.579617,29.249012 a 2.4259392,2.2319425 0 0 0 0.05977,-0.655346 5.7778782,5.3158345 0 0 0 -0.163749,-1.038008 2.4562328,2.2598134 0 0 0 -0.826112,0.03691 c -0.245624,0.04594 -0.498616,0.0919 -0.54774,0.366843 -0.04912,0.274944 0.09989,0.412791 -0.04994,0.641788 -0.149822,0.228993 -0.398728,0.0919 -0.647628,0.22598 -0.169479,0.09341 -0.06222,0.335205 0.02376,0.480588 a 9.9379178,9.1432052 0 0 0 2.013292,0.225981 0.88506254,0.81428611 0 0 0 0.138364,-0.284737 z"
     style="fill:#d33833;stroke-width:0.785326"
     id="path1334" />
  <path
     d="m 20.169163,30.398502 c 0.01318,0.03239 0.02701,0.06629 0.03849,0.09643 0.0114,0.03013 0.02376,0.07005 0.03438,0.104702 l -0.0074,-0.08813 z"
     style="fill:#d33833;stroke-width:0.785326"
     id="path1336" />
  <path
     d="m 23.444959,29.42377 q 0.0082,-0.198864 0.01719,-0.396974 a 1.0717363,0.98603194 0 0 1 -0.785995,-0.05574 c -0.767164,-0.384921 -0.04093,-0.271177 -0.31276,-0.781895 a 2.6494565,2.4375854 0 0 0 -1.002143,-0.274944 c -1.005418,0 -1.391866,-0.186058 -1.28379,0.880574 0.05649,0.572485 0.107253,1.144219 0.156378,1.717458 0.08187,0.141615 0.155557,0.268917 0.214511,0.376635 a 3.9578098,3.6413128 0 0 0 1.500758,-0.421078 17.199359,15.823967 0 0 0 1.495847,-1.044034 z"
     style="fill:#d33833;stroke-width:0.785326"
     id="path1338" />
  <path
     d="m 23.824856,28.877648 c 0.01719,0.06704 0.03521,0.142368 0.05241,0.233515 v 0 a 0.57312098,0.5272898 0 1 0 0.350421,-0.986786 0.78026327,0.7178674 0 0 1 -0.402821,0.753271 z"
     style="fill:#d33833;stroke-width:0.785326"
     id="path1340" />
  <path
     d="m 25.401757,28.830192 c 0.245624,-0.137847 0.498615,0 0.647627,-0.22598 0.149018,-0.225981 0,-0.366844 0.04995,-0.641787 0.04995,-0.274944 0.298844,-0.320895 0.547742,-0.366843 a 2.4562328,2.2598134 0 0 1 0.826113,-0.03691 0.92108727,0.84743004 0 0 0 -0.284922,-0.491133 c -0.611607,-0.328422 -1.683342,0.621452 -2.181958,0.823329 l -0.04667,0.01733 a 1.3869528,1.2760413 0 0 1 0.143282,0.420325 1.2076477,1.1110749 0 0 1 0.337323,-0.03163 1.4418086,1.3265105 0 0 1 0.225972,0.02486 c 0.03684,0.0068 0.07287,0.01506 0.108891,0.0241 a 1.1978229,1.1020357 0 0 1 0.198956,0.0693 3.4460945,3.1705183 0 0 0 -0.61979,0.07533 0.57312098,0.5272898 0 0 0 -0.16375,0.07156 7.055938,6.4916908 0 0 0 -0.02865,0.677944 q 0.129364,0.0339 0.263636,0.06328 c -0.08598,-0.137847 -0.193224,-0.379648 -0.02376,-0.473055 z"
     style="fill:#ef3d3a;stroke-width:0.785326"
     id="path1342" />
  <path
     d="m 20.242031,30.598875 c 0.04176,0.137846 0.07777,0.262136 0.207141,0.290007 -0.05895,-0.108475 -0.133445,-0.235772 -0.214509,-0.376634 z"
     style="fill:#ef3d3a;stroke-width:0.785326"
     id="path1344" />
  <path
     d="m 20.077463,28.794035 c -0.105611,-1.066632 0.278373,-0.880573 1.283792,-0.880573 a 2.6494565,2.4375854 0 0 1 1.002143,0.274944 c 0.271823,0.510718 -0.454405,0.396974 0.312759,0.781895 a 1.0717363,0.98603194 0 0 0 0.785996,0.05574 v -0.04745 a 2.4881637,2.289191 0 0 0 -0.749972,-0.218449 2.8656048,2.6364491 0 0 0 -0.303752,-0.02711 1.2731473,1.1713366 0 0 1 0.238254,-0.07986 2.6895747,2.4744957 0 0 0 0.741781,-0.211669 c 0,-0.05951 0.0049,-0.119021 0.0074,-0.177772 a 1.5416955,1.4184096 0 0 1 -0.163749,-0.02034 1.2813347,1.1788693 0 0 1 -0.14492,-0.03314 1.2977096,1.1939348 0 0 1 -0.24071,-0.09565 c -0.145758,-0.07534 -0.271023,-0.162711 -0.42986,-0.242559 a 7.4317416,6.8374422 0 0 0 -1.971555,-0.66364 c -0.754064,-0.132575 -0.760615,0.832364 -0.728683,1.543452 0,0.07533 0.0065,0.144628 0.01064,0.210916 a 5.3914309,4.9602905 0 0 0 0.445397,1.431216 l 0.06468,0.11299 C 20.185557,29.939017 20.13397,29.36653 20.077487,28.794044 Z"
     style="fill:#ef3d3a;stroke-width:0.785326"
     id="path1346" />
  <path
     d="m 24.228497,28.124377 a 0.82611294,0.76005059 0 0 0 -0.476509,0.150655 1.3918653,1.2805609 0 0 0 0.0058,0.310348 c 0.009,0.0595 0.02293,0.116752 0.0393,0.179278 l 0.02538,0.09868 v 0.0128 0 a 0.78026327,0.7178674 0 0 0 0.406099,-0.751766 z"
     style="fill:#ef3d3a;stroke-width:0.785326"
     id="path1348" />
  <path
     d="m 19.009821,15.29165 a 1.2166539,1.119361 0 0 0 -0.09333,0.57098 0.32094773,0.29528229 0 0 0 0.04995,0.102444 0.284923,0.26213836 0 0 0 0.171936,0.102444 c 0.409373,-0.843664 1.086474,-1.657196 2.443952,-1.366433 a 0.46504674,0.42785802 0 0 0 -0.224337,-0.623709 0.94073714,0.86550855 0 0 0 -0.327498,-0.107724 2.3055838,2.1212115 0 0 0 -2.02066,1.321991 z"
     style="fill:#231f20;stroke-width:0.785326"
     id="path1350" />
  <path
     d="m 27.28405,17.900229 c -0.0262,0.99733 1.677608,0.506197 1.937149,-0.04971 a 14.038188,12.915587 0 0 1 -0.959568,-1.724991 h -0.06468 v 0 a 2.4865263,2.2876845 0 0 0 0,0.301309 2.6486376,2.4368323 0 0 0 0.171117,0.687736 c 0.07777,0.192838 0.167843,0.376636 0.245624,0.569473 -0.325042,0.186059 -0.962843,0.06779 -1.329642,0.21619 z"
     style="fill:#231f20;stroke-width:0.785326"
     id="path1352" />
  <path
     d="m 22.929969,18.010207 c -0.399549,0.357049 -1.119223,0.06026 -1.653864,0.03767 -0.510078,0.741971 0.99723,0.881327 1.644038,0.705814 a 1.1511543,1.0590992 0 0 0 0.525635,-0.402246 c 0.179304,-0.464765 -0.182581,-0.668147 -0.369255,-0.835374 a 5.6935476,5.2382476 0 0 1 -0.799913,-1.377733 0.90880613,0.83613097 0 0 0 -0.04012,0.335207 3.3183706,3.053008 0 0 0 0.429839,1.12162 c 0.09333,0.158186 0.185856,0.300554 0.263637,0.415053 z"
     style="fill:#231f20;stroke-width:0.785326"
     id="path1354" />
  <path
     d="m 24.29809,22.184834 a 5.3930684,4.9617971 0 0 0 3.656512,-1.054578 v 0 c -0.03849,-0.225982 0.294749,-0.632749 0.20223,-0.971721 -0.03193,-0.116753 -0.320948,-0.286243 -0.496158,-0.462509 a 12.286076,11.303587 0 0 1 -2.082068,-2.625903 c -0.04339,-0.09266 -0.0696,-0.602616 -0.370072,-0.399233 -0.03603,1.236871 0.962843,2.259813 1.707899,3.088411 0.363524,0.403002 0.802371,0.633502 0.39873,1.260223 -0.654997,0.225982 -1.705444,0.880574 -2.610977,0.737452 -0.310304,-0.04896 -0.374984,-0.274943 -0.428202,-0.503184 a 1.9453363,1.7897721 0 0 0 -0.08187,-0.273438 0.58867711,0.54160196 0 0 0 -0.03767,-0.07533 1.0823799,0.99582447 0 0 0 0.141642,1.279807 z"
     style="fill:#231f20;stroke-width:0.785326"
     id="path1356" />
  <path
     d="m 13.650322,19.009797 a 0.68119521,0.62672161 0 0 0 -0.130184,0.08361 0.99968674,0.91974408 0 0 0 -0.302935,0.588305 0.6549954,0.60261692 0 0 0 0.102346,-0.0821 c 0.125266,-0.117506 0.256267,-0.268919 0.491247,-0.163459 a 1.875743,1.7257442 0 0 0 0.155558,1.666988 c 0,-0.552147 -0.09579,-1.496749 0.416741,-1.468878 0.358609,0.02034 0.431477,0.726153 0.736868,0.886599 a 1.4074213,1.2948732 0 0 0 -0.832662,-1.533658 0.80155061,0.73745246 0 0 0 -0.636983,0.0226 z"
     style="fill:#231f20;stroke-width:0.785326"
     id="path1358" />
  <path
     d="m 26.150909,22.606665 a 3.2880769,3.0251369 0 0 0 0,0.800729 2.8041992,2.5799536 0 0 0 2.425121,-1.694107 v 0 a 6.9904384,6.4314292 0 0 1 -2.425121,0.893378 z"
     style="fill:#231f20;stroke-width:0.785326"
     id="path1360" />
  <path
     d="m 25.825049,23.454097 a 4.0388653,3.7158865 0 0 0 -0.06304,-0.802987 8.4207846,7.7473937 0 0 1 -3.561537,-0.423339 c 0.388905,0.958162 2.141837,1.295626 3.624583,1.226326 z"
     style="fill:#231f20;stroke-width:0.785326"
     id="path1362" />
  <path
     d="m 22.039174,22.994601 v 0 c -0.749151,0 -0.117086,0.384168 0.0098,0.534069 a 3.8374543,3.530582 0 0 0 1.051267,1.075671 4.3147822,3.9697389 0 0 0 2.805018,0.01056 0.90962487,0.83688425 0 0 0 0.438847,-0.458742 c -1.701351,0.03767 -3.717917,0.19359 -4.304958,-1.161545 z"
     style="fill:#231f20;stroke-width:0.785326"
     id="path1364" />
  <path
     d="m 27.863721,30.444453 a 1.3992339,1.2873404 0 0 0 -0.853131,-0.567214 1.1732606,1.0794376 0 0 0 -0.751607,0.09039 c -0.0065,0.150655 -0.01479,0.312608 -0.02538,0.476068 z"
     style="fill:#81b0c4;stroke-width:0.785326"
     id="path1366" />
  <path
     d="m 25.416496,27.031382 c -0.56166,0.04594 -1.222385,0.280969 -1.843813,0.31562 -0.05649,0 -0.112989,0.0045 -0.168662,0.0045 -0.05567,0 -0.111349,0 -0.163748,-0.0075 a 1.5801764,1.4538133 0 0 1 -0.320947,-0.05725 1.3640279,1.2549497 0 0 1 -0.15392,-0.05273 c 0,0.03916 -0.05812,0.02486 -0.06714,0.05725 0.06961,0.04971 0.136725,0.09491 0.20223,0.134837 0.0655,0.03992 0.130184,0.07533 0.194861,0.107711 a 1.8159748,1.6707554 0 0 0 0.388904,0.143123 2.4988074,2.2989836 0 0 0 0.668096,0.06779 c 0.08187,0 0.173573,0 0.267729,-0.0068 0.339779,-0.228239 0.641077,-0.494146 0.996412,-0.706567 z"
     style="fill:#f0d6b7;stroke-width:0.785326"
     id="path1368" />
  <path
     d="m 23.054417,30.269693 -0.287379,0.175514 h 0.431478 q -0.07042,-0.08964 -0.1441,-0.175514 z"
     style="fill:#81b0c4;stroke-width:0.785326"
     id="path1370" />
  <path
     d="m 11.260407,30.812802 v -0.252345 a 0.12526786,0.11525048 0 0 1 0.125266,-0.115248 h 0.231704 a 16.568108,15.243196 0 0 0 -0.663182,-1.526129 19.714544,18.138016 0 0 1 4.593156,-2.625149 c 0.09661,-0.0354 0.664,0.609396 0.982492,0.946862 a 1.9265053,1.7724471 0 0 0 0.196499,0.19359 17.25831,15.878202 0 0 0 2.527462,1.246664 9.9592052,9.1627903 0 0 0 0.389723,1.467372 c 0.03193,0.09491 0.06386,0.19585 0.09661,0.29679 h 0.132643 a 0.12526786,0.11525048 0 0 1 0.125267,0.115248 v 0.119023 h 0.113808 a 0.12526786,0.11525048 0 0 1 0.125266,0.115248 v 0.192085 h 1.384497 v -0.192085 a 0.12526786,0.11525048 0 0 1 0.125266,-0.115248 h 0.638622 v -0.119023 a 0.12526786,0.11525048 0 0 1 0.125266,-0.115248 h 0.259544 l 0.287378,-0.175514 q 0.07368,0.08588 0.144101,0.175514 h 0.690201 a 5.1687325,4.7554008 0 0 0 -0.400359,-0.515992 c 0.09415,-0.0919 0.177667,-0.192836 0.270186,-0.286995 0.402821,0.155174 0.664819,-0.203384 0.974304,-0.1725 0.354516,0.03465 0.635346,0.485107 1.141331,0.455729 -0.01141,0.165721 -0.01965,0.33144 -0.02784,0.49716 v 0.0226 h 0.388086 c 0.0098,-0.163461 0.01883,-0.323153 0.02538,-0.476067 a 1.1732606,1.0794376 0 0 1 0.751607,-0.09039 1.3992339,1.2873404 0 0 1 0.853133,0.567212 h 0.393814 c 0.02784,-0.0452 0.05649,-0.08964 0.08187,-0.134835 -0.117086,-0.252346 -0.405277,-0.359311 -0.491244,-0.64028 a 4.1944267,3.8590081 0 0 0 -0.106427,-2.937757 0.76306964,0.70204872 0 0 0 -0.56166,-0.384169 0.77616955,0.71410105 0 0 0 -0.420834,0.07985 1.1929103,1.0975161 0 0 1 0.225155,-0.213175 3.5951059,3.3076137 0 0 0 0.711488,-0.58454 c 0.582947,0.431625 0.934188,0.837638 1.49339,1.299393 0.302935,0.250086 0.900619,0.549889 0.959568,0.953641 a 1.9150427,1.7619012 0 0 1 -0.0442,0.462509 c -0.04176,0.211669 -0.09826,0.433131 -0.127725,0.569472 a 17.059355,15.695157 0 0 1 -0.447033,1.548727 0.12281164,0.11299068 0 0 1 0.05895,0.09565 v 0.426352 h 0.301298 c 0.211238,-0.608644 0.418379,-1.2316 0.627159,-1.874892 a 5.0819457,4.675554 0 0 0 0.391333,-1.647396 c -0.06386,-0.464767 -0.851493,-0.952888 -1.266598,-1.321237 -0.230066,-0.204137 -1.304259,-0.954395 -1.366483,-1.235365 -0.06222,-0.28097 0.438027,-0.887354 0.598502,-1.194688 a 9.5539267,8.7899212 0 0 0 0.50844,-1.346849 c 0.844944,-2.732114 0.930912,-6.486418 -0.277555,-8.731918 A 10.267053,9.4460203 0 0 0 26.570925,11.05224 C 24.687813,9.7400427 21.197506,9.5946609 18.924671,10.364504 a 11.037491,10.154849 0 0 0 -1.801237,0.70732 c -1.488477,0.802989 -3.068654,1.340824 -3.509956,2.95885 -1.087293,0.451964 -1.415608,1.732524 -1.360753,3.214961 a 5.0934079,4.6860999 0 0 1 0.121988,0.924265 c -0.0303,0.138601 -0.23416,0.315621 -0.275098,0.405259 a 4.3393446,3.9923371 0 0 0 0.498615,3.459021 2.6404503,2.4292994 0 0 0 1.762757,1.043281 3.7400237,3.4409427 0 0 0 0.365978,1.25947 c 0.139184,0.280969 0.659089,0.785662 0.467502,1.144218 a 5.7205661,5.2631055 0 0 1 -1.224022,0.727659 c -0.948105,0.523524 -1.637489,0.843665 -2.510268,1.423683 -0.566573,0.376635 -1.451635,0.423339 -1.309993,1.288094 a 14.630141,13.460202 0 0 0 0.661546,1.89297 c 0.02046,0.05875 0.04339,0.116753 0.06549,0.17476 h 0.38481 z M 18.09774,11.669169 a 1.3484718,1.2406376 0 0 1 -0.130184,0.125043 9.2788287,8.5368219 0 0 0 -0.770437,0.584539 c -0.305392,0.311101 -0.646809,1.145724 -1.052088,1.238377 a 3.1251468,2.875236 0 0 1 -0.611602,-0.02185 1.7398316,1.6007012 0 0 0 -0.382353,0.06629 6.0497013,5.5659205 0 0 1 -0.887519,0.244813 c 0.612422,-1.231599 2.521733,-2.227423 4.011847,-2.616111 0.08187,-0.0211 0.153919,0.03013 0.221881,0.09718 -0.009,0.21619 -0.242349,0.211669 -0.399548,0.281723 z m -1.952706,2.787105 c 0.245624,1.145724 -0.459315,2.451143 -0.157198,3.66165 0.102347,0.411286 0.458498,1.050059 -0.10971,1.064371 a 1.7578439,1.6172732 0 0 0 -2.574951,-1.315964 1.9003053,1.7483423 0 0 0 -0.178487,0.09039 c -0.08188,-0.888106 -0.217785,-2.136277 0.440485,-2.802922 a 3.6098434,3.3211725 0 0 1 2.463602,-1.068892 2.3006713,2.1166919 0 0 1 0.116268,0.374376 z M 13.367035,21.7969 a 3.1587153,2.9061201 0 0 1 -0.836755,-1.958506 1.6653258,1.5321535 0 0 1 1.801236,-1.47867 c 0.560022,0.0565 0.830206,0.507705 0.989043,1.007877 0.0442,0.140861 0.08187,0.285489 0.111351,0.426351 0.413464,0.02034 1.011148,-0.01656 1.206827,-0.313361 -0.02784,-0.724647 -0.393815,-1.305419 -0.368434,-1.97131 a 11.532013,10.609825 0 0 1 0.317674,-1.704653 3.3642201,3.0951912 0 0 0 -0.100717,-1.907283 c 0.611602,-1.276795 2.40629,-2.283918 3.733475,-2.893315 1.644857,-0.75327 4.263201,-0.150654 5.813083,0.652334 a 3.3789576,3.1087501 0 0 1 0.401184,0.247826 7.1017876,6.533874 0 0 1 1.210924,1.177362 c 0.191586,0.225983 0.375803,0.451963 0.557564,0.669659 -0.791725,-0.216189 -1.473741,0.09943 -1.499939,0.652333 a 0.87605636,0.80600013 0 0 0 0.01318,0.185305 c 0.73687,-0.618437 1.987092,-0.0068 2.357984,0.677943 a 7.8329262,7.2065451 0 0 1 0.409371,2.595773 11.660556,10.728088 0 0 1 -1.756206,6.493951 5.1237015,4.7139709 0 0 1 -1.117587,1.265494 c -1.16671,0.753272 -2.94011,1.437242 -4.458881,0.968708 -2.006741,-0.619943 -2.918823,-1.850035 -4.022489,-3.258651 a 3.6565118,3.364109 0 0 0 1.20519,2.000688 5.4430119,5.0077466 0 0 0 1.781587,1.339317 C 20.56469,26.55306 19.723839,26.51539 19.490498,26.973379 a 12.66188,11.649339 0 0 1 -1.268234,-0.12203 2.6044255,2.3961555 0 0 1 -1.817614,-0.878313 9.293566,8.5503808 0 0 1 -1.183085,-2.534758 3.1415217,2.8903014 0 0 1 -0.102347,-0.626722 c 0.07206,-0.360064 0.768801,-0.517497 0.491247,-1.020682 -0.505986,-0.0045 -0.61979,0.423338 -1.084018,0.465522 A 1.4197025,1.3061722 0 0 1 13.3671,21.7969 Z m 10.455365,7.065683 -0.02538,-0.09868 c -0.01638,-0.06252 -0.02947,-0.119776 -0.0393,-0.17928 a 1.3918653,1.2805609 0 0 1 -0.0058,-0.310346 0.82611294,0.76005059 0 0 1 0.47651,-0.150655 0.57312098,0.5272898 0 1 1 -0.350424,0.986785 c -0.01719,-0.09115 -0.03521,-0.166473 -0.0524,-0.233514 z m -6.371468,-1.822162 a 5.5166988,5.075541 0 0 0 1.857732,0.301308 1.431165,1.316718 0 0 1 -0.09169,0.451964 1.0095117,0.92878333 0 0 0 -0.03357,0.22598 3.4690195,3.1916099 0 0 1 -1.719364,-0.664386 0.23088588,0.21242247 0 0 1 -0.01318,-0.3111 z m 6.031689,0.631994 a 1.8159748,1.6707554 0 0 1 -0.388904,-0.143122 c -0.06386,-0.03163 -0.128545,-0.06779 -0.194861,-0.10771 -0.06632,-0.03993 -0.132644,-0.08512 -0.20223,-0.134838 0.009,-0.03239 0.06468,-0.01808 0.06715,-0.05725 a 1.3640279,1.2549497 0 0 0 0.153919,0.05274 1.5801764,1.4538133 0 0 0 0.320949,0.05725 c 0.05487,0.0045 0.10971,0.0068 0.163747,0.0075 0.05405,7.52e-4 0.112168,0 0.168662,-0.0045 0.621428,-0.03465 1.282152,-0.269671 1.843812,-0.31562 -0.354516,0.213175 -0.654995,0.479081 -0.997231,0.706568 -0.09415,0.0045 -0.183399,0.0068 -0.26773,0.0068 a 2.4988074,2.2989836 0 0 1 -0.667276,-0.06403 z m -1.532689,2.791623 a 3.9578098,3.6413128 0 0 1 -1.50076,0.421079 c -0.129364,-0.02787 -0.163747,-0.150655 -0.207141,-0.29001 -0.01064,-0.03465 -0.02129,-0.0693 -0.03438,-0.104702 -0.01318,-0.0354 -0.02458,-0.06403 -0.03849,-0.09642 A 5.3914309,4.9602905 0 0 1 19.723764,28.96277 c 0,-0.06629 -0.0074,-0.137096 -0.01064,-0.210916 -0.03193,-0.711089 -0.02538,-1.676028 0.728683,-1.543453 a 7.4317416,6.8374422 0 0 1 1.971535,0.663632 c 0.158837,0.07985 0.284105,0.169486 0.429842,0.242555 a 1.2977096,1.1939348 0 0 0 0.24071,0.09565 1.2813347,1.1788693 0 0 0 0.144921,0.03314 1.5416955,1.4184096 0 0 0 0.163748,0.02034 c 0,0.05876 -0.0049,0.118269 -0.0074,0.177772 a 2.6895747,2.4744957 0 0 1 -0.741781,0.211669 1.2731473,1.1713366 0 0 0 -0.238256,0.07985 2.8656048,2.6364491 0 0 1 0.303753,0.02711 2.4881637,2.289191 0 0 1 0.749973,0.21845 v 0.04745 q -0.0082,0.198862 -0.01719,0.396973 a 17.199359,15.823967 0 0 1 -1.491758,1.044798 z m 3.475569,-1.157025 q -0.134281,-0.02938 -0.263636,-0.06328 a 7.055938,6.4916908 0 0 1 0.02865,-0.677943 0.57312098,0.5272898 0 0 1 0.16375,-0.07156 3.4460945,3.1705183 0 0 1 0.619789,-0.07533 1.1978229,1.1020357 0 0 0 -0.198955,-0.0693 c -0.03521,-0.0089 -0.07204,-0.01731 -0.108891,-0.0241 a 1.4418086,1.3265105 0 0 0 -0.225972,-0.02863 1.2076477,1.1110749 0 0 0 -0.33323,0.02863 1.3869528,1.2760413 0 0 0 -0.143281,-0.420326 l 0.04666,-0.01733 c 0.498618,-0.201868 1.570354,-1.151745 2.181957,-0.823318 a 0.92108727,0.84743004 0 0 1 0.284922,0.491133 5.7778782,5.3158345 0 0 1 0.16375,1.038008 2.4259392,2.2319425 0 0 1 -0.05976,0.655346 0.88506254,0.81428611 0 0 1 -0.140822,0.286996 v 0 a 9.9379178,9.1432052 0 0 1 -2.01493,-0.225981 z"
     style="fill:#231f20;stroke-width:0.785326"
     id="path1372" />
  <path
     d="m 21.780452,22.596874 c -0.504347,-0.225981 -0.864593,-0.101691 -0.930094,-0.02109 -0.124447,0.150654 0.133462,0.983773 0.133462,0.983773 l 0.245623,0.04594 c -0.04666,-0.916732 0.551015,-1.00863 0.551015,-1.00863 z"
     style="fill:#f7e4cd;stroke-width:0.785326"
     id="path1374" />
  <path
     d="m 24.94326,30.20416 a 0.27346058,0.25159256 0 0 0 -0.272641,0.240293 h 0.545283 A 0.27346058,0.25159256 0 0 0 24.94326,30.20416 Z"
     style="fill:#1d1919;stroke-width:0.785326"
     id="path1376" />
  <path
     d="m 20.234663,30.794724 a 0.12526786,0.11525048 0 0 0 -0.125266,-0.115247 h -0.113809 v 0.133328 a 0.12526786,0.11525048 0 0 1 -0.125267,0.115248 h -8.484646 a 0.12526786,0.11525048 0 0 1 -0.125266,-0.115248 v 0.174006 h 8.974255 z"
     style="fill:#231f20;stroke-width:0.785326"
     id="path1378" />
  <path
     d="m 29.466823,30.928053 h -6.959326 a 0.12526786,0.11525048 0 0 1 -0.125266,-0.115248 v -0.133331 h -0.638623 a 0.12526786,0.11525048 0 0 0 -0.125267,0.115247 v 0.192086 h 7.972113 V 30.8128 a 0.12526786,0.11525048 0 0 1 -0.123627,0.115248 z"
     style="fill:#231f20;stroke-width:0.785326"
     id="path1380" />
  <path
     d="m 11.385675,30.928053 h 8.487102 a 0.12526786,0.11525048 0 0 0 0.125266,-0.115248 v -0.252346 a 0.12526786,0.11525048 0 0 0 -0.125266,-0.115248 h -8.487102 a 0.12526786,0.11525048 0 0 0 -0.125266,0.115248 v 0.252346 a 0.12526786,0.11525048 0 0 0 0.125266,0.115248 z"
     style="fill:#231f20;stroke-width:0.785326"
     id="path1382" />
  <path
     d="m 22.383047,30.812802 a 0.12526786,0.11525048 0 0 0 0.125266,0.115249 h 6.959328 a 0.12526786,0.11525048 0 0 0 0.125267,-0.115249 v -0.252345 a 0.12281164,0.11299068 0 0 0 -0.05895,-0.09566 0.1219929,0.11223741 0 0 0 -0.06631,-0.01959 h -6.95933 a 0.12526786,0.11525048 0 0 0 -0.125266,0.115248 z"
     style="fill:#231f20;stroke-width:0.785326"
     id="path1384" />
</svg>
