<?xml version="1.0" encoding="UTF-8" standalone="no"?>
<svg
   viewBox="0 0 32 32"
   version="1.1"
   id="svg2737"
   sodipodi:docname="folder_type_systemd_opened.svg"
   inkscape:version="1.1.2 (0a00cf5339, 2022-02-04)"
   xmlns:inkscape="http://www.inkscape.org/namespaces/inkscape"
   xmlns:sodipodi="http://sodipodi.sourceforge.net/DTD/sodipodi-0.dtd"
   xmlns="http://www.w3.org/2000/svg"
   xmlns:svg="http://www.w3.org/2000/svg"
   xmlns:rdf="http://www.w3.org/1999/02/22-rdf-syntax-ns#"
   xmlns:cc="http://creativecommons.org/ns#"
   xmlns:dc="http://purl.org/dc/elements/1.1/">
  <defs
     id="defs2741" />
  <sodipodi:namedview
     id="namedview2739"
     pagecolor="#ffffff"
     bordercolor="#666666"
     borderopacity="1.0"
     inkscape:pageshadow="2"
     inkscape:pageopacity="0.0"
     inkscape:pagecheckerboard="0"
     showgrid="false"
     inkscape:zoom="18.539456"
     inkscape:cx="11.435071"
     inkscape:cy="13.376876"
     inkscape:window-width="1920"
     inkscape:window-height="1011"
     inkscape:window-x="1080"
     inkscape:window-y="32"
     inkscape:window-maximized="1"
     inkscape:current-layer="svg2737" />
  <title
     id="title2731">folder_type_systemd_opened</title>
  <path
     d="M 27.5,5.5 H 18.3 L 16.2,9.7 H 4.4 v 16.8 h 25.2 v -21 z m 0,18.7 H 6.7 V 11.8 h 20.8 z m 0,-14.5 h -8.2 l 1,-2.1 h 7.1 v 2.1 z"
     style="fill:#67616d;fill-opacity:1"
     id="path2733" />
  <polygon
     points="0.5,13.7 4.3,26.5 29.5,26.5 25.7,13.7 "
     style="fill:#67616d;fill-opacity:1"
     id="polygon2735"
     transform="translate(0.1)" />
  <g
     id="g2344"
     transform="matrix(0.91190594,0,0,1.1296275,4.2531881,6.70147)">
    <path
       d="m 2,12 v 8 H 5.256 V 18.769 H 3.3 V 13.231 H 5.256 V 12 Z"
       style="fill:#201a26"
       id="path2326" />
    <path
       d="m 26.744,12 v 1.231 H 28.7 v 5.538 H 26.744 V 20 H 30 v -8 z"
       style="fill:#201a26"
       id="path2328" />
    <path
       d="m 17.628,16 5.21,-2.769 v 5.538 z"
       style="fill:#30d475"
       id="path2330" />
    <ellipse
       cx="12.093"
       cy="16"
       rx="2.9300001"
       ry="2.7690001"
       style="fill:#30d475"
       id="ellipse2332" />
  </g>
  <metadata
     id="metadata2743">
    <rdf:RDF>
      <cc:Work
         rdf:about="">
        <dc:title>folder_type_systemd_opened</dc:title>
      </cc:Work>
    </rdf:RDF>
  </metadata>
</svg>
