<?xml version="1.0" encoding="UTF-8" standalone="no"?>
<svg
   viewBox="0 0 32 32"
   version="1.1"
   id="svg249"
   sodipodi:docname="file_type_shell_template.svg"
   inkscape:version="1.1.1 (1:1.1+202109281944+c3084ef5ed)"
   xmlns:inkscape="http://www.inkscape.org/namespaces/inkscape"
   xmlns:sodipodi="http://sodipodi.sourceforge.net/DTD/sodipodi-0.dtd"
   xmlns="http://www.w3.org/2000/svg"
   xmlns:svg="http://www.w3.org/2000/svg"
   xmlns:rdf="http://www.w3.org/1999/02/22-rdf-syntax-ns#"
   xmlns:cc="http://creativecommons.org/ns#"
   xmlns:dc="http://purl.org/dc/elements/1.1/">
  <sodipodi:namedview
     id="namedview251"
     pagecolor="#ffffff"
     bordercolor="#666666"
     borderopacity="1.0"
     inkscape:pageshadow="2"
     inkscape:pageopacity="0.0"
     inkscape:pagecheckerboard="0"
     showgrid="false"
     inkscape:zoom="26.0625"
     inkscape:cx="8.4220624"
     inkscape:cy="16"
     inkscape:window-width="1920"
     inkscape:window-height="1043"
     inkscape:window-x="1920"
     inkscape:window-y="0"
     inkscape:window-maximized="1"
     inkscape:current-layer="svg249" />
  <defs
     id="defs157">
    <linearGradient
       id="a"
       x1="16"
       y1="2.044"
       x2="16"
       y2="29.956"
       gradientUnits="userSpaceOnUse">
      <stop
         offset="0"
         stop-color="#459fe2"
         id="stop152" />
      <stop
         offset="1"
         stop-color="#2781c4"
         id="stop154" />
    </linearGradient>
  </defs>
  <title
     id="title159">file_type_haxedevelop</title>
  <rect
     x="2.043"
     y="15.953"
     width="27.913"
     height="0.087"
     style="fill:#fff;opacity:0.5"
     id="rect163" />
  <rect
     x="2.054"
     y="3.39"
     width="27.903"
     height="0.087"
     style="fill:#fff;opacity:0.5"
     id="rect165" />
  <rect
     x="2.054"
     y="28.512"
     width="27.903"
     height="0.087"
     style="fill:#fff;opacity:0.5"
     id="rect167" />
  <path
     d="M2.061,12.9H2.043a.044.044,0,0,1,0-.087h.018a.044.044,0,0,1,0,.087Z"
     style="fill:#fff;opacity:0.5"
     id="path169" />
  <path
     d="M29.523,12.9h-.034a.044.044,0,0,1,0-.087h.034a.044.044,0,0,1,0,.087Zm-.45,0h-.035a.044.044,0,0,1,0-.087h.035a.044.044,0,1,1,0,.087Zm-.45,0h-.035a.044.044,0,0,1,0-.087h.035a.044.044,0,1,1,0,.087Zm-.45,0h-.035a.044.044,0,0,1,0-.087h.035a.044.044,0,1,1,0,.087Zm-.45,0h-.034a.044.044,0,0,1,0-.087h.034a.044.044,0,1,1,0,.087Zm-.45,0h-.035a.044.044,0,0,1,0-.087h.035a.044.044,0,0,1,0,.087Zm-.45,0h-.035a.044.044,0,0,1,0-.087h.035a.044.044,0,1,1,0,.087Zm-.45,0h-.034a.044.044,0,0,1,0-.087h.034a.044.044,0,1,1,0,.087Zm-.45,0h-.035a.044.044,0,0,1,0-.087h.035a.044.044,0,1,1,0,.087Zm-.45,0h-.035a.044.044,0,0,1,0-.087h.035a.044.044,0,0,1,0,.087Zm-.45,0h-.035a.044.044,0,0,1,0-.087h.035a.044.044,0,1,1,0,.087Zm-.45,0h-.034a.044.044,0,0,1,0-.087h.034a.044.044,0,0,1,0,.087Zm-.45,0h-.035a.044.044,0,0,1,0-.087h.035a.044.044,0,0,1,0,.087Zm-.45,0h-.035a.044.044,0,0,1,0-.087h.035a.044.044,0,0,1,0,.087Zm-.45,0h-.034a.044.044,0,0,1,0-.087h.034a.044.044,0,0,1,0,.087Zm-.45,0h-.034a.044.044,0,0,1,0-.087h.034a.044.044,0,1,1,0,.087Zm-.45,0h-.035a.044.044,0,0,1,0-.087h.035a.044.044,0,1,1,0,.087Zm-.45,0h-.035a.044.044,0,0,1,0-.087h.035a.044.044,0,1,1,0,.087Zm-.45,0h-.034a.044.044,0,0,1,0-.087h.034a.044.044,0,0,1,0,.087Zm-.45,0h-.035a.044.044,0,0,1,0-.087h.035a.044.044,0,1,1,0,.087Zm-.45,0h-.035a.044.044,0,0,1,0-.087h.035a.044.044,0,0,1,0,.087Zm-.45,0h-.034a.044.044,0,1,1,0-.087h.034a.044.044,0,0,1,0,.087Zm-.45,0h-.034a.044.044,0,0,1,0-.087h.034a.044.044,0,1,1,0,.087Zm-.45,0h-.035a.044.044,0,0,1,0-.087h.035a.044.044,0,0,1,0,.087Zm-.45,0h-.035a.044.044,0,0,1,0-.087h.035a.044.044,0,0,1,0,.087Zm-.45,0h-.034a.044.044,0,0,1,0-.087h.034a.044.044,0,0,1,0,.087Zm-.45,0h-.035a.044.044,0,0,1,0-.087h.035a.044.044,0,0,1,0,.087Zm-.45,0h-.035a.044.044,0,0,1,0-.087h.035a.044.044,0,0,1,0,.087Zm-.45,0h-.035a.044.044,0,0,1,0-.087h.035a.044.044,0,0,1,0,.087Zm-.45,0h-.034a.044.044,0,0,1,0-.087h.034a.044.044,0,0,1,0,.087Zm-.45,0h-.035a.044.044,0,0,1,0-.087h.035a.044.044,0,0,1,0,.087Zm-.45,0h-.035a.044.044,0,0,1,0-.087h.035a.044.044,0,1,1,0,.087Zm-.45,0h-.035a.044.044,0,0,1,0-.087h.035a.044.044,0,0,1,0,.087Zm-.45,0h-.035a.044.044,0,0,1,0-.087h.035a.044.044,0,0,1,0,.087Zm-.45,0h-.035a.044.044,0,0,1,0-.087h.035a.044.044,0,1,1,0,.087Zm-.45,0h-.035a.044.044,0,0,1,0-.087h.035a.044.044,0,0,1,0,.087Zm-.45,0h-.035a.044.044,0,0,1,0-.087h.035a.044.044,0,0,1,0,.087Zm-.45,0h-.035a.044.044,0,0,1,0-.087h.035a.044.044,0,0,1,0,.087Zm-.45,0h-.035a.044.044,0,0,1,0-.087h.035a.044.044,0,0,1,0,.087Zm-.45,0h-.035a.044.044,0,0,1,0-.087h.035a.044.044,0,0,1,0,.087Zm-.45,0h-.035a.044.044,0,0,1,0-.087h.035a.044.044,0,0,1,0,.087Zm-.45,0H11.03a.044.044,0,0,1,0-.087h.035a.044.044,0,0,1,0,.087Zm-.45,0H10.58a.044.044,0,0,1,0-.087h.035a.044.044,0,0,1,0,.087Zm-.45,0H10.13a.044.044,0,0,1,0-.087h.035a.044.044,0,0,1,0,.087Zm-.45,0H9.68a.044.044,0,0,1,0-.087h.035a.044.044,0,0,1,0,.087Zm-.45,0H9.229a.044.044,0,0,1,0-.087h.035a.044.044,0,0,1,0,.087Zm-.45,0H8.779a.044.044,0,0,1,0-.087h.035a.044.044,0,0,1,0,.087Zm-.45,0H8.329a.044.044,0,0,1,0-.087h.035a.044.044,0,0,1,0,.087Zm-.45,0H7.879a.044.044,0,0,1,0-.087h.035a.044.044,0,0,1,0,.087Zm-.45,0H7.429a.044.044,0,0,1,0-.087h.035a.044.044,0,0,1,0,.087Zm-.45,0H6.979a.044.044,0,0,1,0-.087h.035a.044.044,0,0,1,0,.087Zm-.45,0H6.528a.044.044,0,0,1,0-.087h.035a.044.044,0,0,1,0,.087Zm-.45,0H6.078a.044.044,0,0,1,0-.087h.035a.044.044,0,0,1,0,.087Zm-.45,0H5.628a.044.044,0,0,1,0-.087h.035a.044.044,0,0,1,0,.087Zm-.45,0H5.178a.044.044,0,0,1,0-.087h.035a.044.044,0,0,1,0,.087Zm-.45,0H4.728a.044.044,0,0,1,0-.087h.035a.044.044,0,0,1,0,.087Zm-.45,0H4.277a.044.044,0,0,1,0-.087h.035a.044.044,0,0,1,0,.087Zm-.45,0H3.827a.044.044,0,0,1,0-.087h.035a.044.044,0,0,1,0,.087Zm-.45,0H3.377a.044.044,0,0,1,0-.087h.035a.044.044,0,0,1,0,.087Zm-.45,0H2.927a.044.044,0,0,1,0-.087h.035a.044.044,0,0,1,0,.087Zm-.45,0H2.477a.044.044,0,0,1,0-.087h.035a.044.044,0,0,1,0,.087Z"
     style="fill:#fff;opacity:0.5"
     id="path171" />
  <path
     d="M29.956,12.9h-.017a.044.044,0,0,1,0-.087h.017a.044.044,0,1,1,0,.087Z"
     style="fill:#fff;opacity:0.5"
     id="path173" />
  <path
     d="M2.061,6.618H2.043a.044.044,0,1,1,0-.087h.018a.044.044,0,0,1,0,.087Z"
     style="fill:#fff;opacity:0.5"
     id="path175" />
  <path
     d="M29.523,6.618h-.034a.044.044,0,1,1,0-.087h.034a.044.044,0,0,1,0,.087Zm-.45,0h-.035a.044.044,0,1,1,0-.087h.035a.044.044,0,1,1,0,.087Zm-.45,0h-.035a.044.044,0,1,1,0-.087h.035a.044.044,0,1,1,0,.087Zm-.45,0h-.035a.044.044,0,1,1,0-.087h.035a.044.044,0,1,1,0,.087Zm-.45,0h-.034a.044.044,0,0,1,0-.087h.034a.044.044,0,1,1,0,.087Zm-.45,0h-.035a.044.044,0,0,1,0-.087h.035a.044.044,0,0,1,0,.087Zm-.45,0h-.035a.044.044,0,1,1,0-.087h.035a.044.044,0,1,1,0,.087Zm-.45,0h-.034a.044.044,0,1,1,0-.087h.034a.044.044,0,1,1,0,.087Zm-.45,0h-.035a.044.044,0,1,1,0-.087h.035a.044.044,0,1,1,0,.087Zm-.45,0h-.035a.044.044,0,0,1,0-.087h.035a.044.044,0,0,1,0,.087Zm-.45,0h-.035a.044.044,0,1,1,0-.087h.035a.044.044,0,1,1,0,.087Zm-.45,0h-.034a.044.044,0,1,1,0-.087h.034a.044.044,0,1,1,0,.087Zm-.45,0h-.035a.044.044,0,1,1,0-.087h.035a.044.044,0,1,1,0,.087Zm-.45,0h-.035a.044.044,0,0,1,0-.087h.035a.044.044,0,0,1,0,.087Zm-.45,0h-.034a.044.044,0,1,1,0-.087h.034a.044.044,0,0,1,0,.087Zm-.45,0h-.034a.044.044,0,1,1,0-.087h.034a.044.044,0,1,1,0,.087Zm-.45,0h-.035a.044.044,0,1,1,0-.087h.035a.044.044,0,1,1,0,.087Zm-.45,0h-.035a.044.044,0,1,1,0-.087h.035a.044.044,0,1,1,0,.087Zm-.45,0h-.034a.044.044,0,0,1,0-.087h.034a.044.044,0,0,1,0,.087Zm-.45,0h-.035a.044.044,0,1,1,0-.087h.035a.044.044,0,1,1,0,.087Zm-.45,0h-.035a.044.044,0,1,1,0-.087h.035a.044.044,0,1,1,0,.087Zm-.45,0h-.034a.044.044,0,1,1,0-.087h.034a.044.044,0,1,1,0,.087Zm-.45,0h-.034a.044.044,0,0,1,0-.087h.034a.044.044,0,1,1,0,.087Zm-.45,0h-.035a.044.044,0,0,1,0-.087h.035a.044.044,0,0,1,0,.087Zm-.45,0h-.035a.044.044,0,1,1,0-.087h.035a.044.044,0,1,1,0,.087Zm-.45,0h-.034a.044.044,0,1,1,0-.087h.034a.044.044,0,1,1,0,.087Zm-.45,0h-.035a.044.044,0,1,1,0-.087h.035a.044.044,0,1,1,0,.087Zm-.45,0h-.035a.044.044,0,0,1,0-.087h.035a.044.044,0,0,1,0,.087Zm-.45,0h-.035a.044.044,0,1,1,0-.087h.035a.044.044,0,1,1,0,.087Zm-.45,0h-.034a.044.044,0,1,1,0-.087h.034a.044.044,0,1,1,0,.087Zm-.45,0h-.035a.044.044,0,1,1,0-.087h.035a.044.044,0,1,1,0,.087Zm-.45,0h-.035a.044.044,0,0,1,0-.087h.035a.044.044,0,1,1,0,.087Zm-.45,0h-.035a.044.044,0,1,1,0-.087h.035a.044.044,0,1,1,0,.087Zm-.45,0h-.035a.044.044,0,1,1,0-.087h.035a.044.044,0,1,1,0,.087Zm-.45,0h-.035a.044.044,0,1,1,0-.087h.035a.044.044,0,1,1,0,.087Zm-.45,0h-.035a.044.044,0,1,1,0-.087h.035a.044.044,0,1,1,0,.087Zm-.45,0h-.035a.044.044,0,1,1,0-.087h.035a.044.044,0,1,1,0,.087Zm-.45,0h-.035a.044.044,0,1,1,0-.087h.035a.044.044,0,0,1,0,.087Zm-.45,0h-.035a.044.044,0,1,1,0-.087h.035a.044.044,0,1,1,0,.087Zm-.45,0h-.035a.044.044,0,1,1,0-.087h.035a.044.044,0,0,1,0,.087Zm-.45,0h-.035a.044.044,0,1,1,0-.087h.035a.044.044,0,1,1,0,.087Zm-.45,0H11.03a.044.044,0,1,1,0-.087h.035a.044.044,0,0,1,0,.087Zm-.45,0H10.58a.044.044,0,1,1,0-.087h.035a.044.044,0,1,1,0,.087Zm-.45,0H10.13a.044.044,0,0,1,0-.087h.035a.044.044,0,0,1,0,.087Zm-.45,0H9.68a.044.044,0,0,1,0-.087h.035a.044.044,0,0,1,0,.087Zm-.45,0H9.229a.044.044,0,0,1,0-.087h.035a.044.044,0,1,1,0,.087Zm-.45,0H8.779a.044.044,0,1,1,0-.087h.035a.044.044,0,1,1,0,.087Zm-.45,0H8.329a.044.044,0,0,1,0-.087h.035a.044.044,0,0,1,0,.087Zm-.45,0H7.879a.044.044,0,0,1,0-.087h.035a.044.044,0,0,1,0,.087Zm-.45,0H7.429a.044.044,0,1,1,0-.087h.035a.044.044,0,0,1,0,.087Zm-.45,0H6.979a.044.044,0,1,1,0-.087h.035a.044.044,0,1,1,0,.087Zm-.45,0H6.528a.044.044,0,1,1,0-.087h.035a.044.044,0,0,1,0,.087Zm-.45,0H6.078a.044.044,0,1,1,0-.087h.035a.044.044,0,0,1,0,.087Zm-.45,0H5.628a.044.044,0,1,1,0-.087h.035a.044.044,0,0,1,0,.087Zm-.45,0H5.178a.044.044,0,1,1,0-.087h.035a.044.044,0,1,1,0,.087Zm-.45,0H4.728a.044.044,0,1,1,0-.087h.035a.044.044,0,0,1,0,.087Zm-.45,0H4.277a.044.044,0,0,1,0-.087h.035a.044.044,0,0,1,0,.087Zm-.45,0H3.827a.044.044,0,0,1,0-.087h.035a.044.044,0,0,1,0,.087Zm-.45,0H3.377a.044.044,0,0,1,0-.087h.035a.044.044,0,0,1,0,.087Zm-.45,0H2.927a.044.044,0,0,1,0-.087h.035a.044.044,0,0,1,0,.087Zm-.45,0H2.477a.044.044,0,1,1,0-.087h.035a.044.044,0,1,1,0,.087Z"
     style="fill:#fff;opacity:0.5"
     id="path177" />
  <path
     d="M29.956,6.618h-.017a.044.044,0,0,1,0-.087h.017a.044.044,0,1,1,0,.087Z"
     style="fill:#fff;opacity:0.5"
     id="path179" />
  <path
     d="M2.061,9.759H2.043a.044.044,0,0,1,0-.087h.018a.044.044,0,1,1,0,.087Z"
     style="fill:#fff;opacity:0.5"
     id="path181" />
  <path
     d="M29.523,9.759h-.034a.044.044,0,1,1,0-.087h.034a.044.044,0,0,1,0,.087Zm-.45,0h-.035a.044.044,0,1,1,0-.087h.035a.044.044,0,1,1,0,.087Zm-.45,0h-.035a.044.044,0,1,1,0-.087h.035a.044.044,0,1,1,0,.087Zm-.45,0h-.035a.044.044,0,1,1,0-.087h.035a.044.044,0,1,1,0,.087Zm-.45,0h-.034a.044.044,0,0,1,0-.087h.034a.044.044,0,1,1,0,.087Zm-.45,0h-.035a.044.044,0,0,1,0-.087h.035a.044.044,0,0,1,0,.087Zm-.45,0h-.035a.044.044,0,1,1,0-.087h.035a.044.044,0,1,1,0,.087Zm-.45,0h-.034a.044.044,0,1,1,0-.087h.034a.044.044,0,1,1,0,.087Zm-.45,0h-.035a.044.044,0,1,1,0-.087h.035a.044.044,0,1,1,0,.087Zm-.45,0h-.035a.044.044,0,0,1,0-.087h.035a.044.044,0,0,1,0,.087Zm-.45,0h-.035a.044.044,0,1,1,0-.087h.035a.044.044,0,1,1,0,.087Zm-.45,0h-.034a.044.044,0,1,1,0-.087h.034a.044.044,0,1,1,0,.087Zm-.45,0h-.035a.044.044,0,1,1,0-.087h.035a.044.044,0,1,1,0,.087Zm-.45,0h-.035a.044.044,0,0,1,0-.087h.035a.044.044,0,0,1,0,.087Zm-.45,0h-.034a.044.044,0,1,1,0-.087h.034a.044.044,0,0,1,0,.087Zm-.45,0h-.034a.044.044,0,1,1,0-.087h.034a.044.044,0,1,1,0,.087Zm-.45,0h-.035a.044.044,0,1,1,0-.087h.035a.044.044,0,1,1,0,.087Zm-.45,0h-.035a.044.044,0,1,1,0-.087h.035a.044.044,0,1,1,0,.087Zm-.45,0h-.034a.044.044,0,0,1,0-.087h.034a.044.044,0,0,1,0,.087Zm-.45,0h-.035a.044.044,0,1,1,0-.087h.035a.044.044,0,1,1,0,.087Zm-.45,0h-.035a.044.044,0,1,1,0-.087h.035a.044.044,0,1,1,0,.087Zm-.45,0h-.034a.044.044,0,1,1,0-.087h.034a.044.044,0,1,1,0,.087Zm-.45,0h-.034a.044.044,0,0,1,0-.087h.034a.044.044,0,1,1,0,.087Zm-.45,0h-.035a.044.044,0,0,1,0-.087h.035a.044.044,0,0,1,0,.087Zm-.45,0h-.035a.044.044,0,1,1,0-.087h.035a.044.044,0,1,1,0,.087Zm-.45,0h-.034a.044.044,0,1,1,0-.087h.034a.044.044,0,1,1,0,.087Zm-.45,0h-.035a.044.044,0,1,1,0-.087h.035a.044.044,0,1,1,0,.087Zm-.45,0h-.035a.044.044,0,0,1,0-.087h.035a.044.044,0,0,1,0,.087Zm-.45,0h-.035a.044.044,0,1,1,0-.087h.035a.044.044,0,1,1,0,.087Zm-.45,0h-.034a.044.044,0,1,1,0-.087h.034a.044.044,0,1,1,0,.087Zm-.45,0h-.035a.044.044,0,1,1,0-.087h.035a.044.044,0,1,1,0,.087Zm-.45,0h-.035a.044.044,0,0,1,0-.087h.035a.044.044,0,1,1,0,.087Zm-.45,0h-.035a.044.044,0,1,1,0-.087h.035a.044.044,0,1,1,0,.087Zm-.45,0h-.035a.044.044,0,1,1,0-.087h.035a.044.044,0,1,1,0,.087Zm-.45,0h-.035a.044.044,0,1,1,0-.087h.035a.044.044,0,1,1,0,.087Zm-.45,0h-.035a.044.044,0,1,1,0-.087h.035a.044.044,0,1,1,0,.087Zm-.45,0h-.035a.044.044,0,1,1,0-.087h.035a.044.044,0,1,1,0,.087Zm-.45,0h-.035a.044.044,0,1,1,0-.087h.035a.044.044,0,0,1,0,.087Zm-.45,0h-.035a.044.044,0,1,1,0-.087h.035a.044.044,0,1,1,0,.087Zm-.45,0h-.035a.044.044,0,1,1,0-.087h.035a.044.044,0,0,1,0,.087Zm-.45,0h-.035a.044.044,0,1,1,0-.087h.035a.044.044,0,1,1,0,.087Zm-.45,0H11.03a.044.044,0,1,1,0-.087h.035a.044.044,0,0,1,0,.087Zm-.45,0H10.58a.044.044,0,1,1,0-.087h.035a.044.044,0,1,1,0,.087Zm-.45,0H10.13a.044.044,0,0,1,0-.087h.035a.044.044,0,0,1,0,.087Zm-.45,0H9.68a.044.044,0,1,1,0-.087h.035a.044.044,0,0,1,0,.087Zm-.45,0H9.229a.044.044,0,1,1,0-.087h.035a.044.044,0,1,1,0,.087Zm-.45,0H8.779a.044.044,0,1,1,0-.087h.035a.044.044,0,1,1,0,.087Zm-.45,0H8.329a.044.044,0,0,1,0-.087h.035a.044.044,0,1,1,0,.087Zm-.45,0H7.879a.044.044,0,1,1,0-.087h.035a.044.044,0,0,1,0,.087Zm-.45,0H7.429a.044.044,0,1,1,0-.087h.035a.044.044,0,0,1,0,.087Zm-.45,0H6.979a.044.044,0,1,1,0-.087h.035a.044.044,0,1,1,0,.087Zm-.45,0H6.528a.044.044,0,1,1,0-.087h.035a.044.044,0,0,1,0,.087Zm-.45,0H6.078a.044.044,0,1,1,0-.087h.035a.044.044,0,0,1,0,.087Zm-.45,0H5.628a.044.044,0,1,1,0-.087h.035a.044.044,0,0,1,0,.087Zm-.45,0H5.178a.044.044,0,1,1,0-.087h.035a.044.044,0,1,1,0,.087Zm-.45,0H4.728a.044.044,0,1,1,0-.087h.035a.044.044,0,0,1,0,.087Zm-.45,0H4.277a.044.044,0,1,1,0-.087h.035a.044.044,0,0,1,0,.087Zm-.45,0H3.827a.044.044,0,0,1,0-.087h.035a.044.044,0,1,1,0,.087Zm-.45,0H3.377a.044.044,0,1,1,0-.087h.035a.044.044,0,1,1,0,.087Zm-.45,0H2.927a.044.044,0,0,1,0-.087h.035a.044.044,0,1,1,0,.087Zm-.45,0H2.477a.044.044,0,0,1,0-.087h.035a.044.044,0,0,1,0,.087Z"
     style="fill:#fff;opacity:0.5"
     id="path183" />
  <path
     d="M29.956,9.759h-.017a.044.044,0,0,1,0-.087h.017a.044.044,0,1,1,0,.087Z"
     style="fill:#fff;opacity:0.5"
     id="path185" />
  <path
     d="M2.061,19.18H2.043a.044.044,0,1,1,0-.087h.018a.044.044,0,1,1,0,.087Z"
     style="fill:#fff;opacity:0.5"
     id="path187" />
  <path
     d="M29.523,19.18h-.034a.044.044,0,1,1,0-.087h.034a.044.044,0,0,1,0,.087Zm-.45,0h-.035a.044.044,0,1,1,0-.087h.035a.044.044,0,1,1,0,.087Zm-.45,0h-.035a.044.044,0,1,1,0-.087h.035a.044.044,0,1,1,0,.087Zm-.45,0h-.035a.044.044,0,1,1,0-.087h.035a.044.044,0,1,1,0,.087Zm-.45,0h-.034a.044.044,0,0,1,0-.087h.034a.044.044,0,1,1,0,.087Zm-.45,0h-.035a.044.044,0,0,1,0-.087h.035a.044.044,0,0,1,0,.087Zm-.45,0h-.035a.044.044,0,1,1,0-.087h.035a.044.044,0,1,1,0,.087Zm-.45,0h-.034a.044.044,0,1,1,0-.087h.034a.044.044,0,1,1,0,.087Zm-.45,0h-.035a.044.044,0,1,1,0-.087h.035a.044.044,0,1,1,0,.087Zm-.45,0h-.035a.044.044,0,0,1,0-.087h.035a.044.044,0,0,1,0,.087Zm-.45,0h-.035a.044.044,0,1,1,0-.087h.035a.044.044,0,1,1,0,.087Zm-.45,0h-.034a.044.044,0,1,1,0-.087h.034a.044.044,0,1,1,0,.087Zm-.45,0h-.035a.044.044,0,1,1,0-.087h.035a.044.044,0,1,1,0,.087Zm-.45,0h-.035a.044.044,0,0,1,0-.087h.035a.044.044,0,0,1,0,.087Zm-.45,0h-.034a.044.044,0,1,1,0-.087h.034a.044.044,0,0,1,0,.087Zm-.45,0h-.034a.044.044,0,1,1,0-.087h.034a.044.044,0,1,1,0,.087Zm-.45,0h-.035a.044.044,0,1,1,0-.087h.035a.044.044,0,1,1,0,.087Zm-.45,0h-.035a.044.044,0,1,1,0-.087h.035a.044.044,0,1,1,0,.087Zm-.45,0h-.034a.044.044,0,0,1,0-.087h.034a.044.044,0,0,1,0,.087Zm-.45,0h-.035a.044.044,0,1,1,0-.087h.035a.044.044,0,1,1,0,.087Zm-.45,0h-.035a.044.044,0,1,1,0-.087h.035a.044.044,0,1,1,0,.087Zm-.45,0h-.034a.044.044,0,1,1,0-.087h.034a.044.044,0,1,1,0,.087Zm-.45,0h-.034a.044.044,0,0,1,0-.087h.034a.044.044,0,1,1,0,.087Zm-.45,0h-.035a.044.044,0,0,1,0-.087h.035a.044.044,0,0,1,0,.087Zm-.45,0h-.035a.044.044,0,1,1,0-.087h.035a.044.044,0,1,1,0,.087Zm-.45,0h-.034a.044.044,0,1,1,0-.087h.034a.044.044,0,1,1,0,.087Zm-.45,0h-.035a.044.044,0,1,1,0-.087h.035a.044.044,0,1,1,0,.087Zm-.45,0h-.035a.044.044,0,0,1,0-.087h.035a.044.044,0,0,1,0,.087Zm-.45,0h-.035a.044.044,0,1,1,0-.087h.035a.044.044,0,1,1,0,.087Zm-.45,0h-.034a.044.044,0,1,1,0-.087h.034a.044.044,0,1,1,0,.087Zm-.45,0h-.035a.044.044,0,1,1,0-.087h.035a.044.044,0,1,1,0,.087Zm-.45,0h-.035a.044.044,0,0,1,0-.087h.035a.044.044,0,1,1,0,.087Zm-.45,0h-.035a.044.044,0,1,1,0-.087h.035a.044.044,0,1,1,0,.087Zm-.45,0h-.035a.044.044,0,1,1,0-.087h.035a.044.044,0,1,1,0,.087Zm-.45,0h-.035a.044.044,0,1,1,0-.087h.035a.044.044,0,1,1,0,.087Zm-.45,0h-.035a.044.044,0,1,1,0-.087h.035a.044.044,0,1,1,0,.087Zm-.45,0h-.035a.044.044,0,1,1,0-.087h.035a.044.044,0,1,1,0,.087Zm-.45,0h-.035a.044.044,0,1,1,0-.087h.035a.044.044,0,0,1,0,.087Zm-.45,0h-.035a.044.044,0,1,1,0-.087h.035a.044.044,0,1,1,0,.087Zm-.45,0h-.035a.044.044,0,1,1,0-.087h.035a.044.044,0,0,1,0,.087Zm-.45,0h-.035a.044.044,0,1,1,0-.087h.035a.044.044,0,1,1,0,.087Zm-.45,0H11.03a.044.044,0,1,1,0-.087h.035a.044.044,0,0,1,0,.087Zm-.45,0H10.58a.044.044,0,1,1,0-.087h.035a.044.044,0,1,1,0,.087Zm-.45,0H10.13a.044.044,0,0,1,0-.087h.035a.044.044,0,0,1,0,.087Zm-.45,0H9.68a.044.044,0,1,1,0-.087h.035a.044.044,0,1,1,0,.087Zm-.45,0H9.229a.044.044,0,1,1,0-.087h.035a.044.044,0,1,1,0,.087Zm-.45,0H8.779a.044.044,0,1,1,0-.087h.035a.044.044,0,1,1,0,.087Zm-.45,0H8.329a.044.044,0,1,1,0-.087h.035a.044.044,0,1,1,0,.087Zm-.45,0H7.879a.044.044,0,1,1,0-.087h.035a.044.044,0,1,1,0,.087Zm-.45,0H7.429a.044.044,0,1,1,0-.087h.035a.044.044,0,1,1,0,.087Zm-.45,0H6.979a.044.044,0,1,1,0-.087h.035a.044.044,0,1,1,0,.087Zm-.45,0H6.528a.044.044,0,1,1,0-.087h.035a.044.044,0,1,1,0,.087Zm-.45,0H6.078a.044.044,0,1,1,0-.087h.035a.044.044,0,1,1,0,.087Zm-.45,0H5.628a.044.044,0,1,1,0-.087h.035a.044.044,0,1,1,0,.087Zm-.45,0H5.178a.044.044,0,1,1,0-.087h.035a.044.044,0,1,1,0,.087Zm-.45,0H4.728a.044.044,0,1,1,0-.087h.035a.044.044,0,1,1,0,.087Zm-.45,0H4.277a.044.044,0,1,1,0-.087h.035a.044.044,0,1,1,0,.087Zm-.45,0H3.827a.044.044,0,1,1,0-.087h.035a.044.044,0,1,1,0,.087Zm-.45,0H3.377a.044.044,0,1,1,0-.087h.035a.044.044,0,1,1,0,.087Zm-.45,0H2.927a.044.044,0,1,1,0-.087h.035a.044.044,0,1,1,0,.087Zm-.45,0H2.477a.044.044,0,1,1,0-.087h.035a.044.044,0,1,1,0,.087Z"
     style="fill:#fff;opacity:0.5"
     id="path189" />
  <path
     d="M29.956,19.18h-.017a.044.044,0,0,1,0-.087h.017a.044.044,0,1,1,0,.087Z"
     style="fill:#fff;opacity:0.5"
     id="path191" />
  <path
     d="M2.061,22.32H2.043a.044.044,0,0,1,0-.087h.018a.044.044,0,0,1,0,.087Z"
     style="fill:#fff;opacity:0.5"
     id="path193" />
  <path
     d="M29.523,22.32h-.034a.044.044,0,1,1,0-.087h.034a.044.044,0,0,1,0,.087Zm-.45,0h-.035a.044.044,0,1,1,0-.087h.035a.044.044,0,0,1,0,.087Zm-.45,0h-.035a.044.044,0,1,1,0-.087h.035a.044.044,0,1,1,0,.087Zm-.45,0h-.035a.044.044,0,1,1,0-.087h.035a.044.044,0,0,1,0,.087Zm-.45,0h-.034a.044.044,0,0,1,0-.087h.034a.044.044,0,0,1,0,.087Zm-.45,0h-.035a.044.044,0,0,1,0-.087h.035a.044.044,0,0,1,0,.087Zm-.45,0h-.035a.044.044,0,1,1,0-.087h.035a.044.044,0,0,1,0,.087Zm-.45,0h-.034a.044.044,0,1,1,0-.087h.034a.044.044,0,0,1,0,.087Zm-.45,0h-.035a.044.044,0,1,1,0-.087h.035a.044.044,0,1,1,0,.087Zm-.45,0h-.035a.044.044,0,0,1,0-.087h.035a.044.044,0,0,1,0,.087Zm-.45,0h-.035a.044.044,0,1,1,0-.087h.035a.044.044,0,0,1,0,.087Zm-.45,0h-.034a.044.044,0,1,1,0-.087h.034a.044.044,0,1,1,0,.087Zm-.45,0h-.035a.044.044,0,1,1,0-.087h.035a.044.044,0,1,1,0,.087Zm-.45,0h-.035a.044.044,0,0,1,0-.087h.035a.044.044,0,0,1,0,.087Zm-.45,0h-.034a.044.044,0,1,1,0-.087h.034a.044.044,0,0,1,0,.087Zm-.45,0h-.034a.044.044,0,1,1,0-.087h.034a.044.044,0,0,1,0,.087Zm-.45,0h-.035a.044.044,0,1,1,0-.087h.035a.044.044,0,0,1,0,.087Zm-.45,0h-.035a.044.044,0,1,1,0-.087h.035a.044.044,0,1,1,0,.087Zm-.45,0h-.034a.044.044,0,0,1,0-.087h.034a.044.044,0,0,1,0,.087Zm-.45,0h-.035a.044.044,0,1,1,0-.087h.035a.044.044,0,0,1,0,.087Zm-.45,0h-.035a.044.044,0,1,1,0-.087h.035a.044.044,0,1,1,0,.087Zm-.45,0h-.034a.044.044,0,0,1,0-.087h.034a.044.044,0,1,1,0,.087Zm-.45,0h-.034a.044.044,0,0,1,0-.087h.034a.044.044,0,1,1,0,.087Zm-.45,0h-.035a.044.044,0,0,1,0-.087h.035a.044.044,0,0,1,0,.087Zm-.45,0h-.035a.044.044,0,1,1,0-.087h.035a.044.044,0,1,1,0,.087Zm-.45,0h-.034a.044.044,0,1,1,0-.087h.034a.044.044,0,0,1,0,.087Zm-.45,0h-.035a.044.044,0,1,1,0-.087h.035a.044.044,0,0,1,0,.087Zm-.45,0h-.035a.044.044,0,0,1,0-.087h.035a.044.044,0,0,1,0,.087Zm-.45,0h-.035a.044.044,0,1,1,0-.087h.035a.044.044,0,0,1,0,.087Zm-.45,0h-.034a.044.044,0,1,1,0-.087h.034a.044.044,0,0,1,0,.087Zm-.45,0h-.035a.044.044,0,1,1,0-.087h.035a.044.044,0,0,1,0,.087Zm-.45,0h-.035a.044.044,0,0,1,0-.087h.035a.044.044,0,0,1,0,.087Zm-.45,0h-.035a.044.044,0,0,1,0-.087h.035a.044.044,0,0,1,0,.087Zm-.45,0h-.035a.044.044,0,1,1,0-.087h.035a.044.044,0,0,1,0,.087Zm-.45,0h-.035a.044.044,0,1,1,0-.087h.035a.044.044,0,0,1,0,.087Zm-.45,0h-.035a.044.044,0,0,1,0-.087h.035a.044.044,0,0,1,0,.087Zm-.45,0h-.035a.044.044,0,0,1,0-.087h.035a.044.044,0,0,1,0,.087Zm-.45,0h-.035a.044.044,0,0,1,0-.087h.035a.044.044,0,0,1,0,.087Zm-.45,0h-.035a.044.044,0,1,1,0-.087h.035a.044.044,0,0,1,0,.087Zm-.45,0h-.035a.044.044,0,1,1,0-.087h.035a.044.044,0,0,1,0,.087Zm-.45,0h-.035a.044.044,0,0,1,0-.087h.035a.044.044,0,1,1,0,.087Zm-.45,0H11.03a.044.044,0,0,1,0-.087h.035a.044.044,0,0,1,0,.087Zm-.45,0H10.58a.044.044,0,1,1,0-.087h.035a.044.044,0,1,1,0,.087Zm-.45,0H10.13a.044.044,0,0,1,0-.087h.035a.044.044,0,0,1,0,.087Zm-.45,0H9.68a.044.044,0,0,1,0-.087h.035a.044.044,0,0,1,0,.087Zm-.45,0H9.229a.044.044,0,0,1,0-.087h.035a.044.044,0,0,1,0,.087Zm-.45,0H8.779a.044.044,0,0,1,0-.087h.035a.044.044,0,0,1,0,.087Zm-.45,0H8.329a.044.044,0,0,1,0-.087h.035a.044.044,0,0,1,0,.087Zm-.45,0H7.879a.044.044,0,0,1,0-.087h.035a.044.044,0,0,1,0,.087Zm-.45,0H7.429a.044.044,0,0,1,0-.087h.035a.044.044,0,0,1,0,.087Zm-.45,0H6.979a.044.044,0,0,1,0-.087h.035a.044.044,0,0,1,0,.087Zm-.45,0H6.528a.044.044,0,0,1,0-.087h.035a.044.044,0,0,1,0,.087Zm-.45,0H6.078a.044.044,0,0,1,0-.087h.035a.044.044,0,0,1,0,.087Zm-.45,0H5.628a.044.044,0,0,1,0-.087h.035a.044.044,0,0,1,0,.087Zm-.45,0H5.178a.044.044,0,0,1,0-.087h.035a.044.044,0,0,1,0,.087Zm-.45,0H4.728a.044.044,0,0,1,0-.087h.035a.044.044,0,0,1,0,.087Zm-.45,0H4.277a.044.044,0,0,1,0-.087h.035a.044.044,0,0,1,0,.087Zm-.45,0H3.827a.044.044,0,0,1,0-.087h.035a.044.044,0,0,1,0,.087Zm-.45,0H3.377a.044.044,0,0,1,0-.087h.035a.044.044,0,0,1,0,.087Zm-.45,0H2.927a.044.044,0,0,1,0-.087h.035a.044.044,0,0,1,0,.087Zm-.45,0H2.477a.044.044,0,0,1,0-.087h.035a.044.044,0,0,1,0,.087Z"
     style="fill:#fff;opacity:0.5"
     id="path195" />
  <path
     d="M29.956,22.32h-.017a.044.044,0,0,1,0-.087h.017a.044.044,0,0,1,0,.087Z"
     style="fill:#fff;opacity:0.5"
     id="path197" />
  <path
     d="M2.061,25.461H2.043a.044.044,0,1,1,0-.087h.018a.044.044,0,1,1,0,.087Z"
     style="fill:#fff;opacity:0.5"
     id="path199" />
  <path
     d="M29.523,25.461h-.034a.044.044,0,1,1,0-.087h.034a.044.044,0,0,1,0,.087Zm-.45,0h-.035a.044.044,0,1,1,0-.087h.035a.044.044,0,1,1,0,.087Zm-.45,0h-.035a.044.044,0,1,1,0-.087h.035a.044.044,0,1,1,0,.087Zm-.45,0h-.035a.044.044,0,1,1,0-.087h.035a.044.044,0,1,1,0,.087Zm-.45,0h-.034a.044.044,0,0,1,0-.087h.034a.044.044,0,1,1,0,.087Zm-.45,0h-.035a.044.044,0,0,1,0-.087h.035a.044.044,0,0,1,0,.087Zm-.45,0h-.035a.044.044,0,1,1,0-.087h.035a.044.044,0,1,1,0,.087Zm-.45,0h-.034a.044.044,0,1,1,0-.087h.034a.044.044,0,1,1,0,.087Zm-.45,0h-.035a.044.044,0,1,1,0-.087h.035a.044.044,0,1,1,0,.087Zm-.45,0h-.035a.044.044,0,0,1,0-.087h.035a.044.044,0,0,1,0,.087Zm-.45,0h-.035a.044.044,0,1,1,0-.087h.035a.044.044,0,1,1,0,.087Zm-.45,0h-.034a.044.044,0,1,1,0-.087h.034a.044.044,0,1,1,0,.087Zm-.45,0h-.035a.044.044,0,1,1,0-.087h.035a.044.044,0,1,1,0,.087Zm-.45,0h-.035a.044.044,0,0,1,0-.087h.035a.044.044,0,0,1,0,.087Zm-.45,0h-.034a.044.044,0,1,1,0-.087h.034a.044.044,0,0,1,0,.087Zm-.45,0h-.034a.044.044,0,1,1,0-.087h.034a.044.044,0,1,1,0,.087Zm-.45,0h-.035a.044.044,0,1,1,0-.087h.035a.044.044,0,1,1,0,.087Zm-.45,0h-.035a.044.044,0,1,1,0-.087h.035a.044.044,0,1,1,0,.087Zm-.45,0h-.034a.044.044,0,0,1,0-.087h.034a.044.044,0,0,1,0,.087Zm-.45,0h-.035a.044.044,0,1,1,0-.087h.035a.044.044,0,1,1,0,.087Zm-.45,0h-.035a.044.044,0,1,1,0-.087h.035a.044.044,0,1,1,0,.087Zm-.45,0h-.034a.044.044,0,1,1,0-.087h.034a.044.044,0,1,1,0,.087Zm-.45,0h-.034a.044.044,0,0,1,0-.087h.034a.044.044,0,1,1,0,.087Zm-.45,0h-.035a.044.044,0,0,1,0-.087h.035a.044.044,0,0,1,0,.087Zm-.45,0h-.035a.044.044,0,1,1,0-.087h.035a.044.044,0,1,1,0,.087Zm-.45,0h-.034a.044.044,0,1,1,0-.087h.034a.044.044,0,1,1,0,.087Zm-.45,0h-.035a.044.044,0,1,1,0-.087h.035a.044.044,0,1,1,0,.087Zm-.45,0h-.035a.044.044,0,0,1,0-.087h.035a.044.044,0,0,1,0,.087Zm-.45,0h-.035a.044.044,0,1,1,0-.087h.035a.044.044,0,1,1,0,.087Zm-.45,0h-.034a.044.044,0,1,1,0-.087h.034a.044.044,0,1,1,0,.087Zm-.45,0h-.035a.044.044,0,1,1,0-.087h.035a.044.044,0,1,1,0,.087Zm-.45,0h-.035a.044.044,0,0,1,0-.087h.035a.044.044,0,1,1,0,.087Zm-.45,0h-.035a.044.044,0,1,1,0-.087h.035a.044.044,0,1,1,0,.087Zm-.45,0h-.035a.044.044,0,1,1,0-.087h.035a.044.044,0,1,1,0,.087Zm-.45,0h-.035a.044.044,0,1,1,0-.087h.035a.044.044,0,1,1,0,.087Zm-.45,0h-.035a.044.044,0,1,1,0-.087h.035a.044.044,0,1,1,0,.087Zm-.45,0h-.035a.044.044,0,1,1,0-.087h.035a.044.044,0,1,1,0,.087Zm-.45,0h-.035a.044.044,0,1,1,0-.087h.035a.044.044,0,0,1,0,.087Zm-.45,0h-.035a.044.044,0,1,1,0-.087h.035a.044.044,0,1,1,0,.087Zm-.45,0h-.035a.044.044,0,1,1,0-.087h.035a.044.044,0,0,1,0,.087Zm-.45,0h-.035a.044.044,0,1,1,0-.087h.035a.044.044,0,1,1,0,.087Zm-.45,0H11.03a.044.044,0,1,1,0-.087h.035a.044.044,0,0,1,0,.087Zm-.45,0H10.58a.044.044,0,1,1,0-.087h.035a.044.044,0,1,1,0,.087Zm-.45,0H10.13a.044.044,0,0,1,0-.087h.035a.044.044,0,0,1,0,.087Zm-.45,0H9.68a.044.044,0,1,1,0-.087h.035a.044.044,0,1,1,0,.087Zm-.45,0H9.229a.044.044,0,1,1,0-.087h.035a.044.044,0,1,1,0,.087Zm-.45,0H8.779a.044.044,0,1,1,0-.087h.035a.044.044,0,1,1,0,.087Zm-.45,0H8.329a.044.044,0,1,1,0-.087h.035a.044.044,0,1,1,0,.087Zm-.45,0H7.879a.044.044,0,1,1,0-.087h.035a.044.044,0,1,1,0,.087Zm-.45,0H7.429a.044.044,0,1,1,0-.087h.035a.044.044,0,1,1,0,.087Zm-.45,0H6.979a.044.044,0,1,1,0-.087h.035a.044.044,0,1,1,0,.087Zm-.45,0H6.528a.044.044,0,1,1,0-.087h.035a.044.044,0,1,1,0,.087Zm-.45,0H6.078a.044.044,0,1,1,0-.087h.035a.044.044,0,1,1,0,.087Zm-.45,0H5.628a.044.044,0,1,1,0-.087h.035a.044.044,0,1,1,0,.087Zm-.45,0H5.178a.044.044,0,1,1,0-.087h.035a.044.044,0,1,1,0,.087Zm-.45,0H4.728a.044.044,0,1,1,0-.087h.035a.044.044,0,1,1,0,.087Zm-.45,0H4.277a.044.044,0,1,1,0-.087h.035a.044.044,0,1,1,0,.087Zm-.45,0H3.827a.044.044,0,1,1,0-.087h.035a.044.044,0,1,1,0,.087Zm-.45,0H3.377a.044.044,0,1,1,0-.087h.035a.044.044,0,1,1,0,.087Zm-.45,0H2.927a.044.044,0,1,1,0-.087h.035a.044.044,0,1,1,0,.087Zm-.45,0H2.477a.044.044,0,1,1,0-.087h.035a.044.044,0,1,1,0,.087Z"
     style="fill:#fff;opacity:0.5"
     id="path201" />
  <path
     d="M29.956,25.461h-.017a.044.044,0,0,1,0-.087h.017a.044.044,0,1,1,0,.087Z"
     style="fill:#fff;opacity:0.5"
     id="path203" />
  <rect
     x="15.956"
     y="2.044"
     width="0.087"
     height="27.913"
     style="fill:#fff;opacity:0.5"
     id="rect205" />
  <rect
     x="28.517"
     y="2.044"
     width="0.087"
     height="27.913"
     style="fill:#fff;opacity:0.5"
     id="rect207" />
  <rect
     x="3.395"
     y="2.044"
     width="0.087"
     height="27.913"
     style="fill:#fff;opacity:0.5"
     id="rect209" />
  <path
     d="M19.14,30a.043.043,0,0,1-.044-.044v-.018a.044.044,0,0,1,.087,0v.018A.043.043,0,0,1,19.14,30Z"
     style="fill:#fff;opacity:0.5"
     id="path211" />
  <path
     d="m 19.139,29.567 a -0.043,0.043 0 0 0 0.044,-0.044 v -0.035 a -0.044,0.044 0 1 0 -0.087,0 v 0.035 a -0.043,0.043 0 0 0 0.043,0.044 z m 0,-0.45 a -0.043,0.043 0 0 0 0.044,-0.044 v -0.035 a -0.044,0.044 0 0 0 -0.087,0 v 0.035 a -0.043,0.043 0 0 0 0.043,0.044 z m 0,-0.45 a -0.043,0.043 0 0 0 0.044,-0.044 v -0.034 a -0.044,0.044 0 0 0 -0.087,0 v 0.034 a -0.043,0.043 0 0 0 0.043,0.043 z m 0,-0.45 a -0.043,0.043 0 0 0 0.044,-0.044 v -0.034 a -0.044,0.044 0 1 0 -0.087,0 v 0.034 a -0.043,0.043 0 0 0 0.043,0.043 z m 0,-0.45 a -0.043,0.043 0 0 0 0.044,-0.044 v -0.035 a -0.044,0.044 0 1 0 -0.087,0 v 0.035 a -0.043,0.043 0 0 0 0.043,0.043 z m 0,-0.45 a -0.043,0.043 0 0 0 0.044,-0.044 v -0.035 a -0.044,0.044 0 0 0 -0.087,0 v 0.035 a -0.043,0.043 0 0 0 0.043,0.043 z m 0,-0.45 a -0.043,0.043 0 0 0 0.044,-0.044 v -0.034 a -0.044,0.044 0 0 0 -0.087,0 v 0.034 a -0.043,0.043 0 0 0 0.043,0.043 z m 0,-0.45 a -0.043,0.043 0 0 0 0.044,-0.044 v -0.035 a -0.044,0.044 0 1 0 -0.087,0 v 0.035 a -0.043,0.043 0 0 0 0.043,0.043 z m 0,-0.45 a -0.043,0.043 0 0 0 0.044,-0.044 v -0.035 a -0.044,0.044 0 0 0 -0.087,0 v 0.035 a -0.043,0.043 0 0 0 0.043,0.042 z m 0,-0.45 a -0.043,0.043 0 0 0 0.044,-0.044 v -0.034 a -0.044,0.044 0 1 0 -0.087,0 v 0.034 a -0.043,0.043 0 0 0 0.043,0.042 z m 0,-0.45 a -0.043,0.043 0 0 0 0.044,-0.044 v -0.034 a -0.044,0.044 0 0 0 -0.087,0 v 0.034 a -0.043,0.043 0 0 0 0.043,0.042 z m 0,-0.45 a -0.043,0.043 0 0 0 0.044,-0.044 v -0.035 a -0.044,0.044 0 0 0 -0.087,0 v 0.035 a -0.043,0.043 0 0 0 0.043,0.042 z m 0,-0.45 a -0.043,0.043 0 0 0 0.044,-0.044 v -0.035 a -0.044,0.044 0 0 0 -0.087,0 v 0.035 a -0.043,0.043 0 0 0 0.043,0.042 z m 0,-0.45 a -0.043,0.043 0 0 0 0.044,-0.044 v -0.034 a -0.044,0.044 0 1 0 -0.087,0 v 0.034 a -0.043,0.043 0 0 0 0.043,0.041 z m 0,-0.45 a -0.043,0.043 0 0 0 0.044,-0.044 v -0.035 a -0.044,0.044 0 1 0 -0.087,0 v 0.035 a -0.043,0.043 0 0 0 0.043,0.041 z m 0,-0.45 a -0.043,0.043 0 0 0 0.044,-0.044 v -0.035 a -0.044,0.044 0 0 0 -0.087,0 v 0.035 a -0.043,0.043 0 0 0 0.043,0.041 z m 0,-0.45 a -0.043,0.043 0 0 0 0.044,-0.044 v -0.035 a -0.044,0.044 0 1 0 -0.087,0 v 0.035 a -0.043,0.043 0 0 0 0.043,0.041 z m 0,-0.45 a -0.043,0.043 0 0 0 0.044,-0.044 v -0.034 a -0.044,0.044 0 0 0 -0.087,0 v 0.034 a -0.043,0.043 0 0 0 0.043,0.04 z m 0,-0.45 a -0.043,0.043 0 0 0 0.044,-0.044 v -0.035 a -0.044,0.044 0 0 0 -0.087,0 v 0.035 a -0.043,0.043 0 0 0 0.043,0.04 z m 0,-0.45 a -0.043,0.043 0 0 0 0.044,-0.044 v -0.035 a -0.044,0.044 0 0 0 -0.087,0 v 0.035 a -0.043,0.043 0 0 0 0.043,0.04 z m 0,-0.45 a -0.043,0.043 0 0 0 0.044,-0.044 v -0.034 a -0.044,0.044 0 1 0 -0.087,0 v 0.034 a -0.043,0.043 0 0 0 0.043,0.04 z m 0,-0.45 a -0.043,0.043 0 0 0 0.044,-0.044 v -0.034 a -0.044,0.044 0 0 0 -0.087,0 v 0.034 a -0.043,0.043 0 0 0 0.043,0.04 z m 0,-0.45 a -0.043,0.043 0 0 0 0.044,-0.044 v -0.035 a -0.044,0.044 0 1 0 -0.087,0 v 0.035 a -0.043,0.043 0 0 0 0.043,0.04 z m 0,-0.45 a -0.043,0.043 0 0 0 0.044,-0.044 v -0.035 a -0.044,0.044 0 1 0 -0.087,0 v 0.035 a -0.043,0.043 0 0 0 0.043,0.04 z m 0,-0.45 a -0.043,0.043 0 0 0 0.044,-0.044 v -0.034 a -0.044,0.044 0 0 0 -0.087,0 v 0.034 a -0.043,0.043 0 0 0 0.043,0.039 z m 0,-0.45 a -0.043,0.043 0 0 0 0.044,-0.044 v -0.035 a -0.044,0.044 0 0 0 -0.087,0 v 0.035 a -0.043,0.043 0 0 0 0.043,0.039 z m 0,-0.45 a -0.043,0.043 0 0 0 0.044,-0.044 v -0.035 a -0.044,0.044 0 1 0 -0.087,0 v 0.035 a -0.043,0.043 0 0 0 0.043,0.039 z m 0,-0.45 a -0.043,0.043 0 0 0 0.044,-0.044 v -0.034 a -0.044,0.044 0 0 0 -0.087,0 v 0.034 a -0.043,0.043 0 0 0 0.043,0.038 z m 0,-0.45 a -0.043,0.043 0 0 0 0.044,-0.044 v -0.034 a -0.044,0.044 0 0 0 -0.087,0 v 0.034 a -0.043,0.043 0 0 0 0.043,0.038 z m 0,-0.45 a -0.043,0.043 0 0 0 0.044,-0.044 v -0.035 a -0.044,0.044 0 0 0 -0.087,0 v 0.035 a -0.043,0.043 0 0 0 0.043,0.038 z m 0,-0.45 a -0.043,0.043 0 0 0 0.044,-0.044 v -0.035 a -0.044,0.044 0 0 0 -0.087,0 v 0.035 a -0.043,0.043 0 0 0 0.043,0.038 z m 0,-0.45 a -0.044,0.044 0 0 0 0.044,-0.044 v -0.035 a -0.044,0.044 0 0 0 -0.087,0 v 0.035 a -0.044,0.044 0 0 0 0.043,0.038 z m 0,-0.45 a -0.044,0.044 0 0 0 0.044,-0.044 v -0.035 a -0.044,0.044 0 1 0 -0.087,0 v 0.035 a -0.044,0.044 0 0 0 0.043,0.038 z m 0,-0.45 a -0.044,0.044 0 0 0 0.044,-0.044 v -0.035 a -0.044,0.044 0 0 0 -0.087,0 v 0.035 a -0.044,0.044 0 0 0 0.043,0.037 z m 0,-0.45 a -0.044,0.044 0 0 0 0.044,-0.044 v -0.035 a -0.044,0.044 0 0 0 -0.087,0 v 0.035 a -0.044,0.044 0 0 0 0.043,0.037 z m 0,-0.45 a -0.044,0.044 0 0 0 0.044,-0.044 v -0.035 a -0.044,0.044 0 0 0 -0.087,0 v 0.035 a -0.044,0.044 0 0 0 0.043,0.037 z m 0,-0.45 a -0.044,0.044 0 0 0 0.044,-0.044 v -0.035 a -0.044,0.044 0 1 0 -0.087,0 v 0.035 a -0.044,0.044 0 0 0 0.043,0.037 z m 0,-0.45 a -0.044,0.044 0 0 0 0.044,-0.044 v -0.035 a -0.044,0.044 0 1 0 -0.087,0 v 0.035 a -0.044,0.044 0 0 0 0.043,0.036 z m 0,-0.45 a -0.044,0.044 0 0 0 0.044,-0.044 v -0.035 a -0.044,0.044 0 0 0 -0.087,0 v 0.035 a -0.044,0.044 0 0 0 0.043,0.036 z m 0,-0.45 a -0.044,0.044 0 0 0 0.044,-0.044 v -0.035 a -0.044,0.044 0 1 0 -0.087,0 v 0.035 a -0.044,0.044 0 0 0 0.043,0.036 z m 0,-0.45 a -0.044,0.044 0 0 0 0.044,-0.044 v -0.035 a -0.044,0.044 0 0 0 -0.087,0 v 0.035 a -0.044,0.044 0 0 0 0.043,0.036 z m 0,-0.45 a -0.044,0.044 0 0 0 0.044,-0.044 v -0.035 a -0.044,0.044 0 1 0 -0.087,0 v 0.035 a -0.044,0.044 0 0 0 0.043,0.036 z m 0,-0.45 a -0.044,0.044 0 0 0 0.044,-0.044 V 10.58 a -0.044,0.044 0 1 0 -0.087,0 v 0.035 a -0.044,0.044 0 0 0 0.043,0.044 z m 0,-0.45 a -0.044,0.044 0 0 0 0.044,-0.044 V 10.13 a -0.044,0.044 0 0 0 -0.087,0 v 0.035 a -0.044,0.044 0 0 0 0.043,0.043 z m 0,-0.45 A -0.044,0.044 0 0 0 19.183,9.723 V 9.68 a -0.044,0.044 0 0 0 -0.087,0 v 0.035 a -0.044,0.044 0 0 0 0.043,0.043 z m 0,-0.45 A -0.044,0.044 0 0 0 19.183,9.273 V 9.23 a -0.044,0.044 0 0 0 -0.087,0 v 0.035 a -0.044,0.044 0 0 0 0.043,0.043 z m 0,-0.45 A -0.044,0.044 0 0 0 19.183,8.823 V 8.779 a -0.044,0.044 0 0 0 -0.087,0 v 0.035 a -0.044,0.044 0 0 0 0.043,0.044 z m 0,-0.45 A -0.044,0.044 0 0 0 19.183,8.373 V 8.329 a -0.044,0.044 0 0 0 -0.087,0 v 0.035 a -0.044,0.044 0 0 0 0.043,0.044 z m 0,-0.45 A -0.044,0.044 0 0 0 19.183,7.923 V 7.879 a -0.044,0.044 0 0 0 -0.087,0 v 0.035 a -0.044,0.044 0 0 0 0.043,0.043 z m 0,-0.45 A -0.044,0.044 0 0 0 19.183,7.473 V 7.429 a -0.044,0.044 0 0 0 -0.087,0 v 0.035 a -0.044,0.044 0 0 0 0.043,0.043 z m 0,-0.45 A -0.044,0.044 0 0 0 19.183,7.023 V 6.979 a -0.044,0.044 0 0 0 -0.087,0 v 0.035 a -0.044,0.044 0 0 0 0.043,0.043 z m 0,-0.45 A -0.044,0.044 0 0 0 19.183,6.573 V 6.528 a -0.044,0.044 0 0 0 -0.087,0 v 0.035 a -0.044,0.044 0 0 0 0.043,0.044 z m 0,-0.45 A -0.044,0.044 0 0 0 19.183,6.123 V 6.078 a -0.044,0.044 0 0 0 -0.087,0 v 0.035 a -0.044,0.044 0 0 0 0.043,0.044 z m 0,-0.45 A -0.044,0.044 0 0 0 19.183,5.673 V 5.628 a -0.044,0.044 0 0 0 -0.087,0 v 0.035 a -0.044,0.044 0 0 0 0.043,0.043 z m 0,-0.45 A -0.044,0.044 0 0 0 19.183,5.223 V 5.178 a -0.044,0.044 0 0 0 -0.087,0 v 0.035 a -0.044,0.044 0 0 0 0.043,0.043 z m 0,-0.45 A -0.044,0.044 0 0 0 19.183,4.773 V 4.728 a -0.044,0.044 0 0 0 -0.087,0 v 0.035 a -0.044,0.044 0 0 0 0.043,0.043 z m 0,-0.45 A -0.044,0.044 0 0 0 19.183,4.323 V 4.278 a -0.044,0.044 0 0 0 -0.087,0 v 0.035 a -0.044,0.044 0 0 0 0.043,0.043 z m 0,-0.45 A -0.044,0.044 0 0 0 19.183,3.873 V 3.827 a -0.044,0.044 0 0 0 -0.087,0 v 0.035 a -0.044,0.044 0 0 0 0.043,0.043 z m 0,-0.45 A -0.044,0.044 0 0 0 19.183,3.423 V 3.377 a -0.044,0.044 0 0 0 -0.087,0 v 0.035 a -0.044,0.044 0 0 0 0.043,0.043 z m 0,-0.45 A -0.044,0.044 0 0 0 19.183,2.973 V 2.927 a -0.044,0.044 0 0 0 -0.087,0 v 0.035 a -0.044,0.044 0 0 0 0.043,0.043 z m 0,-0.45 A -0.044,0.044 0 0 0 19.183,2.523 V 2.477 a -0.044,0.044 0 0 0 -0.087,0 v 0.035 a -0.044,0.044 0 0 0 0.043,0.043 z"
     style="opacity:0.5;fill:#ffffff"
     id="path213" />
  <path
     d="M19.14,2.1a.044.044,0,0,1-.044-.044V2.044a.044.044,0,0,1,.087,0v.018A.044.044,0,0,1,19.14,2.1Z"
     style="fill:#fff;opacity:0.5"
     id="path215" />
  <path
     d="M22.28,30a.043.043,0,0,1-.044-.044v-.018a.044.044,0,1,1,.087,0v.018A.043.043,0,0,1,22.28,30Z"
     style="fill:#fff;opacity:0.5"
     id="path217" />
  <path
     d="M22.28,29.567a.043.043,0,0,1-.044-.044v-.035a.044.044,0,1,1,.087,0v.035A.043.043,0,0,1,22.28,29.567Zm0-.45a.043.043,0,0,1-.044-.044v-.035a.044.044,0,0,1,.087,0v.035A.043.043,0,0,1,22.28,29.117Zm0-.45a.043.043,0,0,1-.044-.044v-.034a.044.044,0,1,1,.087,0v.034A.043.043,0,0,1,22.28,28.666Zm0-.45a.043.043,0,0,1-.044-.044v-.034a.044.044,0,1,1,.087,0v.034A.043.043,0,0,1,22.28,28.216Zm0-.45a.043.043,0,0,1-.044-.044v-.035a.044.044,0,1,1,.087,0v.035A.043.043,0,0,1,22.28,27.766Zm0-.45a.043.043,0,0,1-.044-.044v-.035a.044.044,0,1,1,.087,0v.035A.043.043,0,0,1,22.28,27.316Zm0-.45a.043.043,0,0,1-.044-.044v-.034a.044.044,0,0,1,.087,0v.034A.043.043,0,0,1,22.28,26.866Zm0-.45a.043.043,0,0,1-.044-.044v-.035a.044.044,0,1,1,.087,0v.035A.043.043,0,0,1,22.28,26.416Zm0-.45a.043.043,0,0,1-.044-.044v-.035a.044.044,0,1,1,.087,0v.035A.043.043,0,0,1,22.28,25.965Zm0-.45a.043.043,0,0,1-.044-.044v-.034a.044.044,0,1,1,.087,0v.034A.043.043,0,0,1,22.28,25.515Zm0-.45a.043.043,0,0,1-.044-.044v-.034a.044.044,0,0,1,.087,0v.034A.043.043,0,0,1,22.28,25.065Zm0-.45a.043.043,0,0,1-.044-.044v-.035a.044.044,0,0,1,.087,0v.035A.043.043,0,0,1,22.28,24.615Zm0-.45a.043.043,0,0,1-.044-.044v-.035a.044.044,0,1,1,.087,0v.035A.043.043,0,0,1,22.28,24.165Zm0-.45a.043.043,0,0,1-.044-.044v-.034a.044.044,0,1,1,.087,0v.034A.043.043,0,0,1,22.28,23.714Zm0-.45a.043.043,0,0,1-.044-.044v-.035a.044.044,0,1,1,.087,0v.035A.043.043,0,0,1,22.28,23.264Zm0-.45a.043.043,0,0,1-.044-.044v-.035a.044.044,0,0,1,.087,0v.035A.043.043,0,0,1,22.28,22.814Zm0-.45a.043.043,0,0,1-.044-.044v-.035a.044.044,0,1,1,.087,0v.035A.043.043,0,0,1,22.28,22.364Zm0-.45a.043.043,0,0,1-.044-.044v-.034a.044.044,0,1,1,.087,0v.034A.043.043,0,0,1,22.28,21.913Zm0-.45a.043.043,0,0,1-.044-.044v-.035a.044.044,0,1,1,.087,0v.035A.043.043,0,0,1,22.28,21.463Zm0-.45a.043.043,0,0,1-.044-.044v-.035a.044.044,0,0,1,.087,0v.035A.043.043,0,0,1,22.28,21.013Zm0-.45a.043.043,0,0,1-.044-.044v-.034a.044.044,0,1,1,.087,0v.034A.043.043,0,0,1,22.28,20.563Zm0-.45a.043.043,0,0,1-.044-.044v-.034a.044.044,0,1,1,.087,0v.034A.043.043,0,0,1,22.28,20.113Zm0-.45a.043.043,0,0,1-.044-.044v-.035a.044.044,0,1,1,.087,0v.035A.043.043,0,0,1,22.28,19.663Zm0-.45a.043.043,0,0,1-.044-.044v-.035a.044.044,0,1,1,.087,0v.035A.043.043,0,0,1,22.28,19.213Zm0-.45a.043.043,0,0,1-.044-.044v-.034a.044.044,0,0,1,.087,0v.034A.043.043,0,0,1,22.28,18.762Zm0-.45a.043.043,0,0,1-.044-.044v-.035a.044.044,0,0,1,.087,0v.035A.043.043,0,0,1,22.28,18.312Zm0-.45a.043.043,0,0,1-.044-.044v-.035a.044.044,0,1,1,.087,0v.035A.043.043,0,0,1,22.28,17.862Zm0-.45a.043.043,0,0,1-.044-.044v-.034a.044.044,0,1,1,.087,0v.034A.043.043,0,0,1,22.28,17.411Zm0-.45a.043.043,0,0,1-.044-.044v-.034a.044.044,0,0,1,.087,0v.034A.043.043,0,0,1,22.28,16.961Zm0-.45a.043.043,0,0,1-.044-.044v-.035a.044.044,0,0,1,.087,0v.035A.043.043,0,0,1,22.28,16.511Zm0-.45a.043.043,0,0,1-.044-.044v-.035a.044.044,0,1,1,.087,0v.035A.043.043,0,0,1,22.28,16.061Zm0-.45a.044.044,0,0,1-.044-.044v-.035a.044.044,0,0,1,.087,0v.035A.044.044,0,0,1,22.28,15.611Zm0-.45a.044.044,0,0,1-.044-.044v-.035a.044.044,0,1,1,.087,0v.035A.044.044,0,0,1,22.28,15.161Zm0-.45a.044.044,0,0,1-.044-.044v-.035a.044.044,0,0,1,.087,0v.035A.044.044,0,0,1,22.28,14.71Zm0-.45a.044.044,0,0,1-.044-.044v-.035a.044.044,0,1,1,.087,0v.035A.044.044,0,0,1,22.28,14.26Zm0-.45a.044.044,0,0,1-.044-.044v-.035a.044.044,0,0,1,.087,0v.035A.044.044,0,0,1,22.28,13.81Zm0-.45a.044.044,0,0,1-.044-.044v-.035a.044.044,0,1,1,.087,0v.035A.044.044,0,0,1,22.28,13.36Zm0-.45a.044.044,0,0,1-.044-.044v-.035a.044.044,0,1,1,.087,0v.035A.044.044,0,0,1,22.28,12.909Zm0-.45a.044.044,0,0,1-.044-.044v-.035a.044.044,0,0,1,.087,0v.035A.044.044,0,0,1,22.28,12.459Zm0-.45a.044.044,0,0,1-.044-.044v-.035a.044.044,0,1,1,.087,0v.035A.044.044,0,0,1,22.28,12.009Zm0-.45a.044.044,0,0,1-.044-.044v-.035a.044.044,0,1,1,.087,0v.035A.044.044,0,0,1,22.28,11.559Zm0-.45a.044.044,0,0,1-.044-.044v-.035a.044.044,0,1,1,.087,0v.035A.044.044,0,0,1,22.28,11.109Zm0-.45a.044.044,0,0,1-.044-.044V10.58a.044.044,0,1,1,.087,0v.035A.044.044,0,0,1,22.28,10.659Zm0-.45a.044.044,0,0,1-.044-.044V10.13a.044.044,0,1,1,.087,0v.035A.044.044,0,0,1,22.28,10.208Zm0-.45a.044.044,0,0,1-.044-.044V9.68a.044.044,0,1,1,.087,0v.035A.044.044,0,0,1,22.28,9.758Zm0-.45a.044.044,0,0,1-.044-.044V9.23a.044.044,0,1,1,.087,0v.035A.044.044,0,0,1,22.28,9.308Zm0-.45a.044.044,0,0,1-.044-.044V8.779a.044.044,0,1,1,.087,0v.035A.044.044,0,0,1,22.28,8.858Zm0-.45a.044.044,0,0,1-.044-.044V8.329a.044.044,0,1,1,.087,0v.035A.044.044,0,0,1,22.28,8.408Zm0-.45a.044.044,0,0,1-.044-.044V7.879a.044.044,0,1,1,.087,0v.035A.044.044,0,0,1,22.28,7.957Zm0-.45a.044.044,0,0,1-.044-.044V7.429a.044.044,0,1,1,.087,0v.035A.044.044,0,0,1,22.28,7.507Zm0-.45a.044.044,0,0,1-.044-.044V6.979a.044.044,0,1,1,.087,0v.035A.044.044,0,0,1,22.28,7.057Zm0-.45a.044.044,0,0,1-.044-.044V6.528a.044.044,0,1,1,.087,0v.035A.044.044,0,0,1,22.28,6.607Zm0-.45a.044.044,0,0,1-.044-.044V6.078a.044.044,0,1,1,.087,0v.035A.044.044,0,0,1,22.28,6.157Zm0-.45a.044.044,0,0,1-.044-.044V5.628a.044.044,0,1,1,.087,0v.035A.044.044,0,0,1,22.28,5.706Zm0-.45a.044.044,0,0,1-.044-.044V5.178a.044.044,0,1,1,.087,0v.035A.044.044,0,0,1,22.28,5.256Zm0-.45a.044.044,0,0,1-.044-.044V4.728a.044.044,0,1,1,.087,0v.035A.044.044,0,0,1,22.28,4.806Zm0-.45a.044.044,0,0,1-.044-.044V4.278a.044.044,0,1,1,.087,0v.035A.044.044,0,0,1,22.28,4.356Zm0-.45a.044.044,0,0,1-.044-.044V3.827a.044.044,0,1,1,.087,0v.035A.044.044,0,0,1,22.28,3.905Zm0-.45a.044.044,0,0,1-.044-.044V3.377a.044.044,0,1,1,.087,0v.035A.044.044,0,0,1,22.28,3.455Zm0-.45a.044.044,0,0,1-.044-.044V2.927a.044.044,0,1,1,.087,0v.035A.044.044,0,0,1,22.28,3.005Zm0-.45a.044.044,0,0,1-.044-.044V2.477a.044.044,0,1,1,.087,0v.035A.044.044,0,0,1,22.28,2.555Z"
     style="fill:#fff;opacity:0.5"
     id="path219" />
  <path
     d="M22.28,2.1a.044.044,0,0,1-.044-.044V2.044a.044.044,0,1,1,.087,0v.018A.044.044,0,0,1,22.28,2.1Z"
     style="fill:#fff;opacity:0.5"
     id="path221" />
  <path
     d="M25.42,30a.043.043,0,0,1-.044-.044v-.018a.044.044,0,1,1,.087,0v.018A.043.043,0,0,1,25.42,30Z"
     style="fill:#fff;opacity:0.5"
     id="path223" />
  <path
     d="M25.42,29.567a.043.043,0,0,1-.044-.044v-.035a.044.044,0,1,1,.087,0v.035A.043.043,0,0,1,25.42,29.567Zm0-.45a.043.043,0,0,1-.044-.044v-.035a.044.044,0,0,1,.087,0v.035A.043.043,0,0,1,25.42,29.117Zm0-.45a.043.043,0,0,1-.044-.044v-.034a.044.044,0,1,1,.087,0v.034A.043.043,0,0,1,25.42,28.666Zm0-.45a.043.043,0,0,1-.044-.044v-.034a.044.044,0,1,1,.087,0v.034A.043.043,0,0,1,25.42,28.216Zm0-.45a.043.043,0,0,1-.044-.044v-.035a.044.044,0,1,1,.087,0v.035A.043.043,0,0,1,25.42,27.766Zm0-.45a.043.043,0,0,1-.044-.044v-.035a.044.044,0,1,1,.087,0v.035A.043.043,0,0,1,25.42,27.316Zm0-.45a.043.043,0,0,1-.044-.044v-.034a.044.044,0,0,1,.087,0v.034A.043.043,0,0,1,25.42,26.866Zm0-.45a.043.043,0,0,1-.044-.044v-.035a.044.044,0,1,1,.087,0v.035A.043.043,0,0,1,25.42,26.416Zm0-.45a.043.043,0,0,1-.044-.044v-.035a.044.044,0,1,1,.087,0v.035A.043.043,0,0,1,25.42,25.965Zm0-.45a.043.043,0,0,1-.044-.044v-.034a.044.044,0,1,1,.087,0v.034A.043.043,0,0,1,25.42,25.515Zm0-.45a.043.043,0,0,1-.044-.044v-.034a.044.044,0,0,1,.087,0v.034A.043.043,0,0,1,25.42,25.065Zm0-.45a.043.043,0,0,1-.044-.044v-.035a.044.044,0,0,1,.087,0v.035A.043.043,0,0,1,25.42,24.615Zm0-.45a.043.043,0,0,1-.044-.044v-.035a.044.044,0,1,1,.087,0v.035A.043.043,0,0,1,25.42,24.165Zm0-.45a.043.043,0,0,1-.044-.044v-.034a.044.044,0,1,1,.087,0v.034A.043.043,0,0,1,25.42,23.714Zm0-.45a.043.043,0,0,1-.044-.044v-.035a.044.044,0,1,1,.087,0v.035A.043.043,0,0,1,25.42,23.264Zm0-.45a.043.043,0,0,1-.044-.044v-.035a.044.044,0,0,1,.087,0v.035A.043.043,0,0,1,25.42,22.814Zm0-.45a.043.043,0,0,1-.044-.044v-.035a.044.044,0,1,1,.087,0v.035A.043.043,0,0,1,25.42,22.364Zm0-.45a.043.043,0,0,1-.044-.044v-.034a.044.044,0,1,1,.087,0v.034A.043.043,0,0,1,25.42,21.913Zm0-.45a.043.043,0,0,1-.044-.044v-.035a.044.044,0,1,1,.087,0v.035A.043.043,0,0,1,25.42,21.463Zm0-.45a.043.043,0,0,1-.044-.044v-.035a.044.044,0,0,1,.087,0v.035A.043.043,0,0,1,25.42,21.013Zm0-.45a.043.043,0,0,1-.044-.044v-.034a.044.044,0,1,1,.087,0v.034A.043.043,0,0,1,25.42,20.563Zm0-.45a.043.043,0,0,1-.044-.044v-.034a.044.044,0,1,1,.087,0v.034A.043.043,0,0,1,25.42,20.113Zm0-.45a.043.043,0,0,1-.044-.044v-.035a.044.044,0,1,1,.087,0v.035A.043.043,0,0,1,25.42,19.663Zm0-.45a.043.043,0,0,1-.044-.044v-.035a.044.044,0,1,1,.087,0v.035A.043.043,0,0,1,25.42,19.213Zm0-.45a.043.043,0,0,1-.044-.044v-.034a.044.044,0,0,1,.087,0v.034A.043.043,0,0,1,25.42,18.762Zm0-.45a.043.043,0,0,1-.044-.044v-.035a.044.044,0,0,1,.087,0v.035A.043.043,0,0,1,25.42,18.312Zm0-.45a.043.043,0,0,1-.044-.044v-.035a.044.044,0,1,1,.087,0v.035A.043.043,0,0,1,25.42,17.862Zm0-.45a.043.043,0,0,1-.044-.044v-.034a.044.044,0,1,1,.087,0v.034A.043.043,0,0,1,25.42,17.411Zm0-.45a.043.043,0,0,1-.044-.044v-.034a.044.044,0,0,1,.087,0v.034A.043.043,0,0,1,25.42,16.961Zm0-.45a.043.043,0,0,1-.044-.044v-.035a.044.044,0,0,1,.087,0v.035A.043.043,0,0,1,25.42,16.511Zm0-.45a.043.043,0,0,1-.044-.044v-.035a.044.044,0,1,1,.087,0v.035A.043.043,0,0,1,25.42,16.061Zm0-.45a.044.044,0,0,1-.044-.044v-.035a.044.044,0,0,1,.087,0v.035A.044.044,0,0,1,25.42,15.611Zm0-.45a.044.044,0,0,1-.044-.044v-.035a.044.044,0,1,1,.087,0v.035A.044.044,0,0,1,25.42,15.161Zm0-.45a.044.044,0,0,1-.044-.044v-.035a.044.044,0,0,1,.087,0v.035A.044.044,0,0,1,25.42,14.71Zm0-.45a.044.044,0,0,1-.044-.044v-.035a.044.044,0,1,1,.087,0v.035A.044.044,0,0,1,25.42,14.26Zm0-.45a.044.044,0,0,1-.044-.044v-.035a.044.044,0,0,1,.087,0v.035A.044.044,0,0,1,25.42,13.81Zm0-.45a.044.044,0,0,1-.044-.044v-.035a.044.044,0,1,1,.087,0v.035A.044.044,0,0,1,25.42,13.36Zm0-.45a.044.044,0,0,1-.044-.044v-.035a.044.044,0,1,1,.087,0v.035A.044.044,0,0,1,25.42,12.909Zm0-.45a.044.044,0,0,1-.044-.044v-.035a.044.044,0,0,1,.087,0v.035A.044.044,0,0,1,25.42,12.459Zm0-.45a.044.044,0,0,1-.044-.044v-.035a.044.044,0,1,1,.087,0v.035A.044.044,0,0,1,25.42,12.009Zm0-.45a.044.044,0,0,1-.044-.044v-.035a.044.044,0,1,1,.087,0v.035A.044.044,0,0,1,25.42,11.559Zm0-.45a.044.044,0,0,1-.044-.044v-.035a.044.044,0,1,1,.087,0v.035A.044.044,0,0,1,25.42,11.109Zm0-.45a.044.044,0,0,1-.044-.044V10.58a.044.044,0,1,1,.087,0v.035A.044.044,0,0,1,25.42,10.659Zm0-.45a.044.044,0,0,1-.044-.044V10.13a.044.044,0,1,1,.087,0v.035A.044.044,0,0,1,25.42,10.208Zm0-.45a.044.044,0,0,1-.044-.044V9.68a.044.044,0,1,1,.087,0v.035A.044.044,0,0,1,25.42,9.758Zm0-.45a.044.044,0,0,1-.044-.044V9.23a.044.044,0,1,1,.087,0v.035A.044.044,0,0,1,25.42,9.308Zm0-.45a.044.044,0,0,1-.044-.044V8.779a.044.044,0,1,1,.087,0v.035A.044.044,0,0,1,25.42,8.858Zm0-.45a.044.044,0,0,1-.044-.044V8.329a.044.044,0,1,1,.087,0v.035A.044.044,0,0,1,25.42,8.408Zm0-.45a.044.044,0,0,1-.044-.044V7.879a.044.044,0,1,1,.087,0v.035A.044.044,0,0,1,25.42,7.957Zm0-.45a.044.044,0,0,1-.044-.044V7.429a.044.044,0,1,1,.087,0v.035A.044.044,0,0,1,25.42,7.507Zm0-.45a.044.044,0,0,1-.044-.044V6.979a.044.044,0,1,1,.087,0v.035A.044.044,0,0,1,25.42,7.057Zm0-.45a.044.044,0,0,1-.044-.044V6.528a.044.044,0,1,1,.087,0v.035A.044.044,0,0,1,25.42,6.607Zm0-.45a.044.044,0,0,1-.044-.044V6.078a.044.044,0,1,1,.087,0v.035A.044.044,0,0,1,25.42,6.157Zm0-.45a.044.044,0,0,1-.044-.044V5.628a.044.044,0,1,1,.087,0v.035A.044.044,0,0,1,25.42,5.706Zm0-.45a.044.044,0,0,1-.044-.044V5.178a.044.044,0,1,1,.087,0v.035A.044.044,0,0,1,25.42,5.256Zm0-.45a.044.044,0,0,1-.044-.044V4.728a.044.044,0,1,1,.087,0v.035A.044.044,0,0,1,25.42,4.806Zm0-.45a.044.044,0,0,1-.044-.044V4.278a.044.044,0,1,1,.087,0v.035A.044.044,0,0,1,25.42,4.356Zm0-.45a.044.044,0,0,1-.044-.044V3.827a.044.044,0,1,1,.087,0v.035A.044.044,0,0,1,25.42,3.905Zm0-.45a.044.044,0,0,1-.044-.044V3.377a.044.044,0,1,1,.087,0v.035A.044.044,0,0,1,25.42,3.455Zm0-.45a.044.044,0,0,1-.044-.044V2.927a.044.044,0,1,1,.087,0v.035A.044.044,0,0,1,25.42,3.005Zm0-.45a.044.044,0,0,1-.044-.044V2.477a.044.044,0,1,1,.087,0v.035A.044.044,0,0,1,25.42,2.555Z"
     style="fill:#fff;opacity:0.5"
     id="path225" />
  <path
     d="M25.42,2.1a.044.044,0,0,1-.044-.044V2.044a.044.044,0,1,1,.087,0v.018A.044.044,0,0,1,25.42,2.1Z"
     style="fill:#fff;opacity:0.5"
     id="path227" />
  <path
     d="M12.86,30a.044.044,0,0,1-.044-.044v-.018a.044.044,0,1,1,.087,0v.018A.044.044,0,0,1,12.86,30Z"
     style="fill:#fff;opacity:0.5"
     id="path229" />
  <path
     d="M12.86,29.567a.044.044,0,0,1-.044-.044v-.035a.044.044,0,0,1,.087,0v.035A.044.044,0,0,1,12.86,29.567Zm0-.45a.044.044,0,0,1-.044-.044v-.035a.044.044,0,0,1,.087,0v.035A.044.044,0,0,1,12.86,29.117Zm0-.45a.044.044,0,0,1-.044-.044v-.034a.044.044,0,1,1,.087,0v.034A.044.044,0,0,1,12.86,28.666Zm0-.45a.044.044,0,0,1-.044-.044v-.034a.044.044,0,1,1,.087,0v.034A.044.044,0,0,1,12.86,28.216Zm0-.45a.044.044,0,0,1-.044-.044v-.035a.044.044,0,1,1,.087,0v.035A.044.044,0,0,1,12.86,27.766Zm0-.45a.044.044,0,0,1-.044-.044v-.035a.044.044,0,1,1,.087,0v.035A.044.044,0,0,1,12.86,27.316Zm0-.45a.044.044,0,0,1-.044-.044v-.034a.044.044,0,0,1,.087,0v.034A.044.044,0,0,1,12.86,26.866Zm0-.45a.044.044,0,0,1-.044-.044v-.035a.044.044,0,1,1,.087,0v.035A.044.044,0,0,1,12.86,26.416Zm0-.45a.044.044,0,0,1-.044-.044v-.035a.044.044,0,1,1,.087,0v.035A.044.044,0,0,1,12.86,25.965Zm0-.45a.044.044,0,0,1-.044-.044v-.034a.044.044,0,0,1,.087,0v.034A.044.044,0,0,1,12.86,25.515Zm0-.45a.044.044,0,0,1-.044-.044v-.034a.044.044,0,0,1,.087,0v.034A.044.044,0,0,1,12.86,25.065Zm0-.45a.044.044,0,0,1-.044-.044v-.035a.044.044,0,0,1,.087,0v.035A.044.044,0,0,1,12.86,24.615Zm0-.45a.044.044,0,0,1-.044-.044v-.035a.044.044,0,1,1,.087,0v.035A.044.044,0,0,1,12.86,24.165Zm0-.45a.044.044,0,0,1-.044-.044v-.034a.044.044,0,1,1,.087,0v.034A.044.044,0,0,1,12.86,23.714Zm0-.45a.044.044,0,0,1-.044-.044v-.035a.044.044,0,0,1,.087,0v.035A.044.044,0,0,1,12.86,23.264Zm0-.45a.044.044,0,0,1-.044-.044v-.035a.044.044,0,0,1,.087,0v.035A.044.044,0,0,1,12.86,22.814Zm0-.45a.044.044,0,0,1-.044-.044v-.035a.044.044,0,1,1,.087,0v.035A.044.044,0,0,1,12.86,22.364Zm0-.45a.044.044,0,0,1-.044-.044v-.034a.044.044,0,1,1,.087,0v.034A.044.044,0,0,1,12.86,21.913Zm0-.45a.044.044,0,0,1-.044-.044v-.035a.044.044,0,1,1,.087,0v.035A.044.044,0,0,1,12.86,21.463Zm0-.45a.044.044,0,0,1-.044-.044v-.035a.044.044,0,0,1,.087,0v.035A.044.044,0,0,1,12.86,21.013Zm0-.45a.044.044,0,0,1-.044-.044v-.034a.044.044,0,0,1,.087,0v.034A.044.044,0,0,1,12.86,20.563Zm0-.45a.044.044,0,0,1-.044-.044v-.034a.044.044,0,0,1,.087,0v.034A.044.044,0,0,1,12.86,20.113Zm0-.45a.044.044,0,0,1-.044-.044v-.035a.044.044,0,1,1,.087,0v.035A.044.044,0,0,1,12.86,19.663Zm0-.45a.044.044,0,0,1-.044-.044v-.035a.044.044,0,1,1,.087,0v.035A.044.044,0,0,1,12.86,19.213Zm0-.45a.044.044,0,0,1-.044-.044v-.034a.044.044,0,0,1,.087,0v.034A.044.044,0,0,1,12.86,18.762Zm0-.45a.044.044,0,0,1-.044-.044v-.035a.044.044,0,0,1,.087,0v.035A.044.044,0,0,1,12.86,18.312Zm0-.45a.044.044,0,0,1-.044-.044v-.035a.044.044,0,0,1,.087,0v.035A.044.044,0,0,1,12.86,17.862Zm0-.45a.044.044,0,0,1-.044-.044v-.034a.044.044,0,0,1,.087,0v.034A.044.044,0,0,1,12.86,17.411Zm0-.45a.044.044,0,0,1-.044-.044v-.034a.044.044,0,0,1,.087,0v.034A.044.044,0,0,1,12.86,16.961Zm0-.45a.044.044,0,0,1-.044-.044v-.035a.044.044,0,0,1,.087,0v.035A.044.044,0,0,1,12.86,16.511Zm0-.45a.044.044,0,0,1-.044-.044v-.035a.044.044,0,1,1,.087,0v.035A.044.044,0,0,1,12.86,16.061Zm0-.45a.044.044,0,0,1-.044-.044v-.035a.044.044,0,0,1,.087,0v.035A.044.044,0,0,1,12.86,15.611Zm0-.45a.044.044,0,0,1-.044-.044v-.035a.044.044,0,0,1,.087,0v.035A.044.044,0,0,1,12.86,15.161Zm0-.45a.044.044,0,0,1-.044-.044v-.035a.044.044,0,0,1,.087,0v.035A.044.044,0,0,1,12.86,14.71Zm0-.45a.044.044,0,0,1-.044-.044v-.035a.044.044,0,1,1,.087,0v.035A.044.044,0,0,1,12.86,14.26Zm0-.45a.044.044,0,0,1-.044-.044v-.035a.044.044,0,0,1,.087,0v.035A.044.044,0,0,1,12.86,13.81Zm0-.45a.044.044,0,0,1-.044-.044v-.035a.044.044,0,0,1,.087,0v.035A.044.044,0,0,1,12.86,13.36Zm0-.45a.044.044,0,0,1-.044-.044v-.035a.044.044,0,0,1,.087,0v.035A.044.044,0,0,1,12.86,12.909Zm0-.45a.044.044,0,0,1-.044-.044v-.035a.044.044,0,0,1,.087,0v.035A.044.044,0,0,1,12.86,12.459Zm0-.45a.044.044,0,0,1-.044-.044v-.035a.044.044,0,0,1,.087,0v.035A.044.044,0,0,1,12.86,12.009Zm0-.45a.044.044,0,0,1-.044-.044v-.035a.044.044,0,0,1,.087,0v.035A.044.044,0,0,1,12.86,11.559Zm0-.45a.044.044,0,0,1-.044-.044v-.035a.044.044,0,1,1,.087,0v.035A.044.044,0,0,1,12.86,11.109Zm0-.45a.044.044,0,0,1-.044-.044V10.58a.044.044,0,1,1,.087,0v.035A.044.044,0,0,1,12.86,10.659Zm0-.45a.044.044,0,0,1-.044-.044V10.13a.044.044,0,0,1,.087,0v.035A.044.044,0,0,1,12.86,10.208Zm0-.45a.044.044,0,0,1-.044-.044V9.68a.044.044,0,0,1,.087,0v.035A.044.044,0,0,1,12.86,9.758Zm0-.45a.044.044,0,0,1-.044-.044V9.23a.044.044,0,0,1,.087,0v.035A.044.044,0,0,1,12.86,9.308Zm0-.45a.044.044,0,0,1-.044-.044V8.779a.044.044,0,0,1,.087,0v.035A.044.044,0,0,1,12.86,8.858Zm0-.45a.044.044,0,0,1-.044-.044V8.329a.044.044,0,0,1,.087,0v.035A.044.044,0,0,1,12.86,8.408Zm0-.45a.044.044,0,0,1-.044-.044V7.879a.044.044,0,0,1,.087,0v.035A.044.044,0,0,1,12.86,7.957Zm0-.45a.044.044,0,0,1-.044-.044V7.429a.044.044,0,0,1,.087,0v.035A.044.044,0,0,1,12.86,7.507Zm0-.45a.044.044,0,0,1-.044-.044V6.979a.044.044,0,0,1,.087,0v.035A.044.044,0,0,1,12.86,7.057Zm0-.45a.044.044,0,0,1-.044-.044V6.528a.044.044,0,0,1,.087,0v.035A.044.044,0,0,1,12.86,6.607Zm0-.45a.044.044,0,0,1-.044-.044V6.078a.044.044,0,0,1,.087,0v.035A.044.044,0,0,1,12.86,6.157Zm0-.45a.044.044,0,0,1-.044-.044V5.628a.044.044,0,0,1,.087,0v.035A.044.044,0,0,1,12.86,5.706Zm0-.45a.044.044,0,0,1-.044-.044V5.178a.044.044,0,0,1,.087,0v.035A.044.044,0,0,1,12.86,5.256Zm0-.45a.044.044,0,0,1-.044-.044V4.728a.044.044,0,0,1,.087,0v.035A.044.044,0,0,1,12.86,4.806Zm0-.45a.044.044,0,0,1-.044-.044V4.278a.044.044,0,0,1,.087,0v.035A.044.044,0,0,1,12.86,4.356Zm0-.45a.044.044,0,0,1-.044-.044V3.827a.044.044,0,0,1,.087,0v.035A.044.044,0,0,1,12.86,3.905Zm0-.45a.044.044,0,0,1-.044-.044V3.377a.044.044,0,0,1,.087,0v.035A.044.044,0,0,1,12.86,3.455Zm0-.45a.044.044,0,0,1-.044-.044V2.927a.044.044,0,0,1,.087,0v.035A.044.044,0,0,1,12.86,3.005Zm0-.45a.044.044,0,0,1-.044-.044V2.477a.044.044,0,0,1,.087,0v.035A.044.044,0,0,1,12.86,2.555Z"
     style="fill:#fff;opacity:0.5"
     id="path231" />
  <path
     d="M12.86,2.1a.044.044,0,0,1-.044-.044V2.044a.044.044,0,0,1,.087,0v.018A.044.044,0,0,1,12.86,2.1Z"
     style="fill:#fff;opacity:0.5"
     id="path233" />
  <path
     d="M9.719,30a.044.044,0,0,1-.044-.044v-.018a.044.044,0,1,1,.087,0v.018A.044.044,0,0,1,9.719,30Z"
     style="fill:#fff;opacity:0.5"
     id="path235" />
  <path
     d="M9.719,29.567a.044.044,0,0,1-.044-.044v-.035a.044.044,0,1,1,.087,0v.035A.044.044,0,0,1,9.719,29.567Zm0-.45a.044.044,0,0,1-.044-.044v-.035a.044.044,0,0,1,.087,0v.035A.044.044,0,0,1,9.719,29.117Zm0-.45a.044.044,0,0,1-.044-.044v-.034a.044.044,0,1,1,.087,0v.034A.044.044,0,0,1,9.719,28.666Zm0-.45a.044.044,0,0,1-.044-.044v-.034a.044.044,0,1,1,.087,0v.034A.044.044,0,0,1,9.719,28.216Zm0-.45a.044.044,0,0,1-.044-.044v-.035a.044.044,0,1,1,.087,0v.035A.044.044,0,0,1,9.719,27.766Zm0-.45a.044.044,0,0,1-.044-.044v-.035a.044.044,0,1,1,.087,0v.035A.044.044,0,0,1,9.719,27.316Zm0-.45a.044.044,0,0,1-.044-.044v-.034a.044.044,0,0,1,.087,0v.034A.044.044,0,0,1,9.719,26.866Zm0-.45a.044.044,0,0,1-.044-.044v-.035a.044.044,0,1,1,.087,0v.035A.044.044,0,0,1,9.719,26.416Zm0-.45a.044.044,0,0,1-.044-.044v-.035a.044.044,0,1,1,.087,0v.035A.044.044,0,0,1,9.719,25.965Zm0-.45a.044.044,0,0,1-.044-.044v-.034a.044.044,0,1,1,.087,0v.034A.044.044,0,0,1,9.719,25.515Zm0-.45a.044.044,0,0,1-.044-.044v-.034a.044.044,0,0,1,.087,0v.034A.044.044,0,0,1,9.719,25.065Zm0-.45a.044.044,0,0,1-.044-.044v-.035a.044.044,0,0,1,.087,0v.035A.044.044,0,0,1,9.719,24.615Zm0-.45a.044.044,0,0,1-.044-.044v-.035a.044.044,0,1,1,.087,0v.035A.044.044,0,0,1,9.719,24.165Zm0-.45a.044.044,0,0,1-.044-.044v-.034a.044.044,0,1,1,.087,0v.034A.044.044,0,0,1,9.719,23.714Zm0-.45a.044.044,0,0,1-.044-.044v-.035a.044.044,0,1,1,.087,0v.035A.044.044,0,0,1,9.719,23.264Zm0-.45a.044.044,0,0,1-.044-.044v-.035a.044.044,0,0,1,.087,0v.035A.044.044,0,0,1,9.719,22.814Zm0-.45a.044.044,0,0,1-.044-.044v-.035a.044.044,0,1,1,.087,0v.035A.044.044,0,0,1,9.719,22.364Zm0-.45a.044.044,0,0,1-.044-.044v-.034a.044.044,0,1,1,.087,0v.034A.044.044,0,0,1,9.719,21.913Zm0-.45a.044.044,0,0,1-.044-.044v-.035a.044.044,0,1,1,.087,0v.035A.044.044,0,0,1,9.719,21.463Zm0-.45a.044.044,0,0,1-.044-.044v-.035a.044.044,0,0,1,.087,0v.035A.044.044,0,0,1,9.719,21.013Zm0-.45a.044.044,0,0,1-.044-.044v-.034a.044.044,0,1,1,.087,0v.034A.044.044,0,0,1,9.719,20.563Zm0-.45a.044.044,0,0,1-.044-.044v-.034a.044.044,0,1,1,.087,0v.034A.044.044,0,0,1,9.719,20.113Zm0-.45a.044.044,0,0,1-.044-.044v-.035a.044.044,0,1,1,.087,0v.035A.044.044,0,0,1,9.719,19.663Zm0-.45a.044.044,0,0,1-.044-.044v-.035a.044.044,0,1,1,.087,0v.035A.044.044,0,0,1,9.719,19.213Zm0-.45a.044.044,0,0,1-.044-.044v-.034a.044.044,0,0,1,.087,0v.034A.044.044,0,0,1,9.719,18.762Zm0-.45a.044.044,0,0,1-.044-.044v-.035a.044.044,0,0,1,.087,0v.035A.044.044,0,0,1,9.719,18.312Zm0-.45a.044.044,0,0,1-.044-.044v-.035a.044.044,0,1,1,.087,0v.035A.044.044,0,0,1,9.719,17.862Zm0-.45a.044.044,0,0,1-.044-.044v-.034a.044.044,0,1,1,.087,0v.034A.044.044,0,0,1,9.719,17.411Zm0-.45a.044.044,0,0,1-.044-.044v-.034a.044.044,0,0,1,.087,0v.034A.044.044,0,0,1,9.719,16.961Zm0-.45a.044.044,0,0,1-.044-.044v-.035a.044.044,0,0,1,.087,0v.035A.044.044,0,0,1,9.719,16.511Zm0-.45a.044.044,0,0,1-.044-.044v-.035a.044.044,0,1,1,.087,0v.035A.044.044,0,0,1,9.719,16.061Zm0-.45a.044.044,0,0,1-.044-.044v-.035a.044.044,0,0,1,.087,0v.035A.044.044,0,0,1,9.719,15.611Zm0-.45a.044.044,0,0,1-.044-.044v-.035a.044.044,0,1,1,.087,0v.035A.044.044,0,0,1,9.719,15.161Zm0-.45a.044.044,0,0,1-.044-.044v-.035a.044.044,0,0,1,.087,0v.035A.044.044,0,0,1,9.719,14.71Zm0-.45a.044.044,0,0,1-.044-.044v-.035a.044.044,0,1,1,.087,0v.035A.044.044,0,0,1,9.719,14.26Zm0-.45a.044.044,0,0,1-.044-.044v-.035a.044.044,0,0,1,.087,0v.035A.044.044,0,0,1,9.719,13.81Zm0-.45a.044.044,0,0,1-.044-.044v-.035a.044.044,0,1,1,.087,0v.035A.044.044,0,0,1,9.719,13.36Zm0-.45a.044.044,0,0,1-.044-.044v-.035a.044.044,0,1,1,.087,0v.035A.044.044,0,0,1,9.719,12.909Zm0-.45a.044.044,0,0,1-.044-.044v-.035a.044.044,0,0,1,.087,0v.035A.044.044,0,0,1,9.719,12.459Zm0-.45a.044.044,0,0,1-.044-.044v-.035a.044.044,0,1,1,.087,0v.035A.044.044,0,0,1,9.719,12.009Zm0-.45a.044.044,0,0,1-.044-.044v-.035a.044.044,0,1,1,.087,0v.035A.044.044,0,0,1,9.719,11.559Zm0-.45a.044.044,0,0,1-.044-.044v-.035a.044.044,0,1,1,.087,0v.035A.044.044,0,0,1,9.719,11.109Zm0-.45a.044.044,0,0,1-.044-.044V10.58a.044.044,0,1,1,.087,0v.035A.044.044,0,0,1,9.719,10.659Zm0-.45a.044.044,0,0,1-.044-.044V10.13a.044.044,0,1,1,.087,0v.035A.044.044,0,0,1,9.719,10.208Zm0-.45a.044.044,0,0,1-.044-.044V9.68a.044.044,0,0,1,.087,0v.035A.044.044,0,0,1,9.719,9.758Zm0-.45a.044.044,0,0,1-.044-.044V9.23a.044.044,0,1,1,.087,0v.035A.044.044,0,0,1,9.719,9.308Zm0-.45a.044.044,0,0,1-.044-.044V8.779a.044.044,0,1,1,.087,0v.035A.044.044,0,0,1,9.719,8.858Zm0-.45a.044.044,0,0,1-.044-.044V8.329a.044.044,0,0,1,.087,0v.035A.044.044,0,0,1,9.719,8.408Zm0-.45a.044.044,0,0,1-.044-.044V7.879a.044.044,0,1,1,.087,0v.035A.044.044,0,0,1,9.719,7.957Zm0-.45a.044.044,0,0,1-.044-.044V7.429a.044.044,0,1,1,.087,0v.035A.044.044,0,0,1,9.719,7.507Zm0-.45a.044.044,0,0,1-.044-.044V6.979a.044.044,0,1,1,.087,0v.035A.044.044,0,0,1,9.719,7.057Zm0-.45a.044.044,0,0,1-.044-.044V6.528a.044.044,0,1,1,.087,0v.035A.044.044,0,0,1,9.719,6.607Zm0-.45a.044.044,0,0,1-.044-.044V6.078a.044.044,0,0,1,.087,0v.035A.044.044,0,0,1,9.719,6.157Zm0-.45a.044.044,0,0,1-.044-.044V5.628a.044.044,0,1,1,.087,0v.035A.044.044,0,0,1,9.719,5.706Zm0-.45a.044.044,0,0,1-.044-.044V5.178a.044.044,0,1,1,.087,0v.035A.044.044,0,0,1,9.719,5.256Zm0-.45a.044.044,0,0,1-.044-.044V4.728a.044.044,0,1,1,.087,0v.035A.044.044,0,0,1,9.719,4.806Zm0-.45a.044.044,0,0,1-.044-.044V4.278a.044.044,0,1,1,.087,0v.035A.044.044,0,0,1,9.719,4.356Zm0-.45a.044.044,0,0,1-.044-.044V3.827a.044.044,0,1,1,.087,0v.035A.044.044,0,0,1,9.719,3.905Zm0-.45a.044.044,0,0,1-.044-.044V3.377a.044.044,0,1,1,.087,0v.035A.044.044,0,0,1,9.719,3.455Zm0-.45a.044.044,0,0,1-.044-.044V2.927a.044.044,0,1,1,.087,0v.035A.044.044,0,0,1,9.719,3.005Zm0-.45a.044.044,0,0,1-.044-.044V2.477a.044.044,0,1,1,.087,0v.035A.044.044,0,0,1,9.719,2.555Z"
     style="fill:#fff;opacity:0.5"
     id="path237" />
  <path
     d="M9.719,2.1a.044.044,0,0,1-.044-.044V2.044a.044.044,0,1,1,.087,0v.018A.044.044,0,0,1,9.719,2.1Z"
     style="fill:#fff;opacity:0.5"
     id="path239" />
  <path
     d="M6.579,30a.044.044,0,0,1-.044-.044v-.018a.044.044,0,1,1,.087,0v.018A.044.044,0,0,1,6.579,30Z"
     style="fill:#fff;opacity:0.5"
     id="path241" />
  <path
     d="M6.579,29.567a.044.044,0,0,1-.044-.044v-.035a.044.044,0,1,1,.087,0v.035A.044.044,0,0,1,6.579,29.567Zm0-.45a.044.044,0,0,1-.044-.044v-.035a.044.044,0,0,1,.087,0v.035A.044.044,0,0,1,6.579,29.117Zm0-.45a.044.044,0,0,1-.044-.044v-.034a.044.044,0,1,1,.087,0v.034A.044.044,0,0,1,6.579,28.666Zm0-.45a.044.044,0,0,1-.044-.044v-.034a.044.044,0,1,1,.087,0v.034A.044.044,0,0,1,6.579,28.216Zm0-.45a.044.044,0,0,1-.044-.044v-.035a.044.044,0,1,1,.087,0v.035A.044.044,0,0,1,6.579,27.766Zm0-.45a.044.044,0,0,1-.044-.044v-.035a.044.044,0,1,1,.087,0v.035A.044.044,0,0,1,6.579,27.316Zm0-.45a.044.044,0,0,1-.044-.044v-.034a.044.044,0,0,1,.087,0v.034A.044.044,0,0,1,6.579,26.866Zm0-.45a.044.044,0,0,1-.044-.044v-.035a.044.044,0,1,1,.087,0v.035A.044.044,0,0,1,6.579,26.416Zm0-.45a.044.044,0,0,1-.044-.044v-.035a.044.044,0,1,1,.087,0v.035A.044.044,0,0,1,6.579,25.965Zm0-.45a.044.044,0,0,1-.044-.044v-.034a.044.044,0,1,1,.087,0v.034A.044.044,0,0,1,6.579,25.515Zm0-.45a.044.044,0,0,1-.044-.044v-.034a.044.044,0,0,1,.087,0v.034A.044.044,0,0,1,6.579,25.065Zm0-.45a.044.044,0,0,1-.044-.044v-.035a.044.044,0,0,1,.087,0v.035A.044.044,0,0,1,6.579,24.615Zm0-.45a.044.044,0,0,1-.044-.044v-.035a.044.044,0,1,1,.087,0v.035A.044.044,0,0,1,6.579,24.165Zm0-.45a.044.044,0,0,1-.044-.044v-.034a.044.044,0,1,1,.087,0v.034A.044.044,0,0,1,6.579,23.714Zm0-.45a.044.044,0,0,1-.044-.044v-.035a.044.044,0,1,1,.087,0v.035A.044.044,0,0,1,6.579,23.264Zm0-.45a.044.044,0,0,1-.044-.044v-.035a.044.044,0,0,1,.087,0v.035A.044.044,0,0,1,6.579,22.814Zm0-.45a.044.044,0,0,1-.044-.044v-.035a.044.044,0,1,1,.087,0v.035A.044.044,0,0,1,6.579,22.364Zm0-.45a.044.044,0,0,1-.044-.044v-.034a.044.044,0,1,1,.087,0v.034A.044.044,0,0,1,6.579,21.913Zm0-.45a.044.044,0,0,1-.044-.044v-.035a.044.044,0,1,1,.087,0v.035A.044.044,0,0,1,6.579,21.463Zm0-.45a.044.044,0,0,1-.044-.044v-.035a.044.044,0,0,1,.087,0v.035A.044.044,0,0,1,6.579,21.013Zm0-.45a.044.044,0,0,1-.044-.044v-.034a.044.044,0,1,1,.087,0v.034A.044.044,0,0,1,6.579,20.563Zm0-.45a.044.044,0,0,1-.044-.044v-.034a.044.044,0,1,1,.087,0v.034A.044.044,0,0,1,6.579,20.113Zm0-.45a.044.044,0,0,1-.044-.044v-.035a.044.044,0,1,1,.087,0v.035A.044.044,0,0,1,6.579,19.663Zm0-.45a.044.044,0,0,1-.044-.044v-.035a.044.044,0,1,1,.087,0v.035A.044.044,0,0,1,6.579,19.213Zm0-.45a.044.044,0,0,1-.044-.044v-.034a.044.044,0,0,1,.087,0v.034A.044.044,0,0,1,6.579,18.762Zm0-.45a.044.044,0,0,1-.044-.044v-.035a.044.044,0,0,1,.087,0v.035A.044.044,0,0,1,6.579,18.312Zm0-.45a.044.044,0,0,1-.044-.044v-.035a.044.044,0,1,1,.087,0v.035A.044.044,0,0,1,6.579,17.862Zm0-.45a.044.044,0,0,1-.044-.044v-.034a.044.044,0,1,1,.087,0v.034A.044.044,0,0,1,6.579,17.411Zm0-.45a.044.044,0,0,1-.044-.044v-.034a.044.044,0,0,1,.087,0v.034A.044.044,0,0,1,6.579,16.961Zm0-.45a.044.044,0,0,1-.044-.044v-.035a.044.044,0,0,1,.087,0v.035A.044.044,0,0,1,6.579,16.511Zm0-.45a.044.044,0,0,1-.044-.044v-.035a.044.044,0,1,1,.087,0v.035A.044.044,0,0,1,6.579,16.061Zm0-.45a.044.044,0,0,1-.044-.044v-.035a.044.044,0,0,1,.087,0v.035A.044.044,0,0,1,6.579,15.611Zm0-.45a.044.044,0,0,1-.044-.044v-.035a.044.044,0,1,1,.087,0v.035A.044.044,0,0,1,6.579,15.161Zm0-.45a.044.044,0,0,1-.044-.044v-.035a.044.044,0,0,1,.087,0v.035A.044.044,0,0,1,6.579,14.71Zm0-.45a.044.044,0,0,1-.044-.044v-.035a.044.044,0,1,1,.087,0v.035A.044.044,0,0,1,6.579,14.26Zm0-.45a.044.044,0,0,1-.044-.044v-.035a.044.044,0,0,1,.087,0v.035A.044.044,0,0,1,6.579,13.81Zm0-.45a.044.044,0,0,1-.044-.044v-.035a.044.044,0,1,1,.087,0v.035A.044.044,0,0,1,6.579,13.36Zm0-.45a.044.044,0,0,1-.044-.044v-.035a.044.044,0,1,1,.087,0v.035A.044.044,0,0,1,6.579,12.909Zm0-.45a.044.044,0,0,1-.044-.044v-.035a.044.044,0,0,1,.087,0v.035A.044.044,0,0,1,6.579,12.459Zm0-.45a.044.044,0,0,1-.044-.044v-.035a.044.044,0,1,1,.087,0v.035A.044.044,0,0,1,6.579,12.009Zm0-.45a.044.044,0,0,1-.044-.044v-.035a.044.044,0,1,1,.087,0v.035A.044.044,0,0,1,6.579,11.559Zm0-.45a.044.044,0,0,1-.044-.044v-.035a.044.044,0,1,1,.087,0v.035A.044.044,0,0,1,6.579,11.109Zm0-.45a.044.044,0,0,1-.044-.044V10.58a.044.044,0,1,1,.087,0v.035A.044.044,0,0,1,6.579,10.659Zm0-.45a.044.044,0,0,1-.044-.044V10.13a.044.044,0,1,1,.087,0v.035A.044.044,0,0,1,6.579,10.208Zm0-.45a.044.044,0,0,1-.044-.044V9.68a.044.044,0,0,1,.087,0v.035A.044.044,0,0,1,6.579,9.758Zm0-.45a.044.044,0,0,1-.044-.044V9.23a.044.044,0,1,1,.087,0v.035A.044.044,0,0,1,6.579,9.308Zm0-.45a.044.044,0,0,1-.044-.044V8.779a.044.044,0,1,1,.087,0v.035A.044.044,0,0,1,6.579,8.858Zm0-.45a.044.044,0,0,1-.044-.044V8.329a.044.044,0,1,1,.087,0v.035A.044.044,0,0,1,6.579,8.408Zm0-.45a.044.044,0,0,1-.044-.044V7.879a.044.044,0,0,1,.087,0v.035A.044.044,0,0,1,6.579,7.957Zm0-.45a.044.044,0,0,1-.044-.044V7.429a.044.044,0,0,1,.087,0v.035A.044.044,0,0,1,6.579,7.507Zm0-.45a.044.044,0,0,1-.044-.044V6.979a.044.044,0,1,1,.087,0v.035A.044.044,0,0,1,6.579,7.057Zm0-.45a.044.044,0,0,1-.044-.044V6.528a.044.044,0,0,1,.087,0v.035A.044.044,0,0,1,6.579,6.607Zm0-.45a.044.044,0,0,1-.044-.044V6.078a.044.044,0,1,1,.087,0v.035A.044.044,0,0,1,6.579,6.157Zm0-.45a.044.044,0,0,1-.044-.044V5.628a.044.044,0,1,1,.087,0v.035A.044.044,0,0,1,6.579,5.706Zm0-.45a.044.044,0,0,1-.044-.044V5.178a.044.044,0,1,1,.087,0v.035A.044.044,0,0,1,6.579,5.256Zm0-.45a.044.044,0,0,1-.044-.044V4.728a.044.044,0,1,1,.087,0v.035A.044.044,0,0,1,6.579,4.806Zm0-.45a.044.044,0,0,1-.044-.044V4.278a.044.044,0,1,1,.087,0v.035A.044.044,0,0,1,6.579,4.356Zm0-.45a.044.044,0,0,1-.044-.044V3.827a.044.044,0,0,1,.087,0v.035A.044.044,0,0,1,6.579,3.905Zm0-.45a.044.044,0,0,1-.044-.044V3.377a.044.044,0,1,1,.087,0v.035A.044.044,0,0,1,6.579,3.455Zm0-.45a.044.044,0,0,1-.044-.044V2.927a.044.044,0,0,1,.087,0v.035A.044.044,0,0,1,6.579,3.005Zm0-.45a.044.044,0,0,1-.044-.044V2.477a.044.044,0,0,1,.087,0v.035A.044.044,0,0,1,6.579,2.555Z"
     style="fill:#fff;opacity:0.5"
     id="path243" />
  <path
     d="M6.579,2.1a.044.044,0,0,1-.044-.044V2.044a.044.044,0,0,1,.087,0v.018A.044.044,0,0,1,6.579,2.1Z"
     style="fill:#fff;opacity:0.5"
     id="path245" />
  <metadata
     id="metadata624">
    <rdf:RDF>
      <cc:Work
         rdf:about="">
        <dc:title>file_type_haxedevelop</dc:title>
      </cc:Work>
    </rdf:RDF>
  </metadata>
  <g
     id="g802"
     transform="matrix(0.54038701,0,0,0.54110229,7.4260089,6.6959374)">
    <path
       d="M 29.4,27.6 H 2.5 V 4.5 H 29.4 Z M 3.5,26.6 H 28.4 V 5.5 H 3.5 Z"
       style="fill:#d9b400"
       id="path784" />
    <polygon
       points="12.035,15.344 6.077,19.316 5.522,18.484 10.366,15.255 5.479,11.184 6.12,10.416 "
       style="fill:#d9b400"
       id="polygon786" />
    <rect
       x="12.7"
       y="18.200001"
       width="7.8000002"
       height="1"
       style="fill:#d9b400"
       id="rect788" />
    <rect
       x="2.5"
       y="5.5"
       width="26.9"
       height="1.9"
       style="fill:#d9b400"
       id="rect790" />
  </g>
  <g
     id="g18201"
     transform="matrix(1.3078499,0,0,1.1905767,-4.9206533,-3.2704987)"
     style="fill:#b3b3b3">
    <path
       d="M 4.014,14.976 A 2.51,2.51 0 0 0 5.581,14.458 2.377,2.377 0 0 0 6.386,13.1 15.261,15.261 0 0 0 6.6,10.156 Q 6.612,8.071 6.675,7.409 A 5.236,5.236 0 0 1 7.093,5.723 3.025,3.025 0 0 1 7.848,4.705 3.046,3.046 0 0 1 9,4.125 6.762,6.762 0 0 1 10.544,4 h 0.7 V 5.96 H 10.857 A 2.338,2.338 0 0 0 9.134,6.428 3.4,3.4 0 0 0 8.709,8.52 36.054,36.054 0 0 1 8.572,12.653 4.734,4.734 0 0 1 7.804,14.713 4.567,4.567 0 0 1 6.1,16 3.809,3.809 0 0 1 8.092,17.754 8.861,8.861 0 0 1 8.71,21.619 q 0,2.435 0.05,2.9 a 1.755,1.755 0 0 0 0.504,1.181 2.639,2.639 0 0 0 1.592,0.337 h 0.387 V 28 h -0.7 A 5.655,5.655 0 0 1 8.77,27.8 2.97,2.97 0 0 1 7.446,26.87 3.353,3.353 0 0 1 6.765,25.24 24.175,24.175 0 0 1 6.6,22.006 16.469,16.469 0 0 0 6.386,18.9 2.408,2.408 0 0 0 5.581,17.539 2.489,2.489 0 0 0 4.014,17.015 Z"
       style="fill:#b3b3b3"
       id="path18189" />
    <path
       d="m 27.986,17.011 a 2.489,2.489 0 0 0 -1.567,0.524 2.408,2.408 0 0 0 -0.805,1.361 16.469,16.469 0 0 0 -0.212,3.109 24.175,24.175 0 0 1 -0.169,3.234 3.353,3.353 0 0 1 -0.681,1.63 2.97,2.97 0 0 1 -1.324,0.93 5.655,5.655 0 0 1 -1.773,0.2 h -0.7 V 26.04 h 0.387 a 2.639,2.639 0 0 0 1.592,-0.337 1.755,1.755 0 0 0 0.506,-1.186 q 0.05,-0.462 0.05,-2.9 A 8.861,8.861 0 0 1 23.908,17.752 3.809,3.809 0 0 1 25.9,16 4.567,4.567 0 0 1 24.2,14.714 4.734,4.734 0 0 1 23.432,12.654 36.054,36.054 0 0 1 23.295,8.521 3.4,3.4 0 0 0 22.87,6.429 2.338,2.338 0 0 0 21.147,5.961 H 20.76 V 4 h 0.7 a 6.762,6.762 0 0 1 1.54,0.125 3.046,3.046 0 0 1 1.149,0.581 3.025,3.025 0 0 1 0.755,1.018 5.236,5.236 0 0 1 0.418,1.686 q 0.062,0.662 0.075,2.747 a 15.261,15.261 0 0 0 0.212,2.947 2.377,2.377 0 0 0 0.805,1.355 2.51,2.51 0 0 0 1.567,0.518 z"
       style="fill:#b3b3b3"
       id="path18191" />
  </g>
  <path
     style="fill:#cccccc;fill-opacity:1;stroke:none;stroke-width:0;stroke-miterlimit:4;stroke-dasharray:none;stroke-opacity:1"
     d=""
     id="path19493" />
  <path
     style="fill:#cccccc;fill-opacity:1;stroke:none;stroke-width:0;stroke-miterlimit:4;stroke-dasharray:none;stroke-opacity:1"
     d=""
     id="path19532" />
  <path
     style="fill:#cccccc;fill-opacity:1;stroke:none;stroke-width:0;stroke-miterlimit:4;stroke-dasharray:none;stroke-opacity:1"
     d=""
     id="path19682" />
  <path
     style="fill:#cccccc;fill-opacity:1;stroke:none;stroke-width:0;stroke-miterlimit:4;stroke-dasharray:none;stroke-opacity:1"
     d=""
     id="path19721" />
</svg>
